<mxfile host="app.diagrams.net" modified="2023-11-01T17:33:54.693Z" agent="Mozilla/5.0 (Windows NT 10.0; Win64; x64) AppleWebKit/537.36 (KHTML, like Gecko) Chrome/118.0.0.0 Safari/537.36" etag="BmtoBTXV2etaK2gXmXCl" version="22.0.8" type="github" pages="8">
  <diagram name="Page 1" id="2cc2dc42-3aac-f2a9-1cec-7a8b7cbee084">
    <mxGraphModel dx="1434" dy="758" grid="1" gridSize="10" guides="1" tooltips="1" connect="1" arrows="1" fold="1" page="1" pageScale="1" pageWidth="1100" pageHeight="850" background="#ffffff" math="0" shadow="0">
      <root>
        <mxCell id="0" />
        <mxCell id="1" parent="0" />
        <mxCell id="7026571954dc6520-1" value="" style="strokeWidth=1;shadow=0;dashed=0;align=center;html=1;shape=mxgraph.mockup.containers.browserWindow;rSize=0;strokeColor=#666666;mainText=,;recursiveResize=0;rounded=0;labelBackgroundColor=none;fontFamily=Verdana;fontSize=12;container=0;" parent="1" vertex="1">
          <mxGeometry x="25" y="15" width="1050" height="820" as="geometry" />
        </mxCell>
        <mxCell id="7026571954dc6520-2" value="Page 1" style="strokeWidth=1;shadow=0;dashed=0;align=center;html=1;shape=mxgraph.mockup.containers.anchor;fontSize=17;fontColor=#666666;align=left;" parent="1" vertex="1">
          <mxGeometry x="85" y="27" width="110" height="26" as="geometry" />
        </mxCell>
        <mxCell id="7026571954dc6520-3" value="https://www.default.com" style="strokeWidth=1;shadow=0;dashed=0;align=center;html=1;shape=mxgraph.mockup.containers.anchor;rSize=0;fontSize=17;fontColor=#666666;align=left;" parent="1" vertex="1">
          <mxGeometry x="155" y="75" width="250" height="26" as="geometry" />
        </mxCell>
        <mxCell id="qC7FanokqbY84IqSl47z-3" value="" style="verticalLabelPosition=bottom;verticalAlign=top;html=1;shape=mxgraph.basic.rect;fillColor2=none;strokeWidth=1;size=20;indent=5;" parent="1" vertex="1">
          <mxGeometry x="690" y="360" width="260" height="195" as="geometry" />
        </mxCell>
        <mxCell id="qC7FanokqbY84IqSl47z-4" value="&lt;font style=&quot;&quot;&gt;&lt;span style=&quot;font-size: 19px;&quot;&gt;Nemaš korisnički račun?&lt;/span&gt;&lt;br&gt;&lt;font style=&quot;font-size: 15px;&quot;&gt;Registriraj se ovdje &lt;br&gt;i postani naš pacijent!&lt;/font&gt;&lt;/font&gt;" style="text;html=1;points=[];align=center;verticalAlign=top;spacingTop=-4;fontSize=30;fontFamily=Verdana" parent="1" vertex="1">
          <mxGeometry x="721.25" y="360" width="197.5" height="155" as="geometry" />
        </mxCell>
        <mxCell id="7026571954dc6520-19" value="Registracija" style="strokeWidth=1;shadow=0;dashed=0;align=center;html=1;shape=mxgraph.mockup.buttons.button;strokeColor=#3700CC;mainText=;buttonStyle=round;fontSize=17;fontStyle=0;fillColor=#6a00ff;whiteSpace=wrap;rounded=0;labelBackgroundColor=none;fontColor=#ffffff;" parent="1" vertex="1">
          <mxGeometry x="725" y="510" width="190" height="30" as="geometry" />
        </mxCell>
        <mxCell id="qC7FanokqbY84IqSl47z-6" value="" style="group" parent="1" vertex="1" connectable="0">
          <mxGeometry x="180" y="270" width="430" height="350" as="geometry" />
        </mxCell>
        <mxCell id="qC7FanokqbY84IqSl47z-2" value="" style="verticalLabelPosition=bottom;verticalAlign=top;html=1;shape=mxgraph.basic.rect;fillColor2=none;strokeWidth=1;size=20;indent=5;" parent="qC7FanokqbY84IqSl47z-6" vertex="1">
          <mxGeometry x="19.545454545454547" y="10.9375" width="430.00000000000006" height="350" as="geometry" />
        </mxCell>
        <mxCell id="7026571954dc6520-4" value="Prijava" style="text;html=1;points=[];align=center;verticalAlign=top;spacingTop=-4;fontSize=30;fontFamily=Verdana" parent="qC7FanokqbY84IqSl47z-6" vertex="1">
          <mxGeometry x="135.3146853146853" y="32.8125" width="198.46153846153848" height="54.6875" as="geometry" />
        </mxCell>
        <mxCell id="7026571954dc6520-18" value="Prijava" style="strokeWidth=1;shadow=0;dashed=0;align=center;html=1;shape=mxgraph.mockup.buttons.button;strokeColor=#001DBC;mainText=;buttonStyle=round;fontSize=17;fontStyle=0;fillColor=#0050ef;whiteSpace=wrap;rounded=0;labelBackgroundColor=none;fillStyle=solid;fontColor=#ffffff;" parent="qC7FanokqbY84IqSl47z-6" vertex="1">
          <mxGeometry x="154.6095571095571" y="295.3125" width="159.87179487179492" height="32.8125" as="geometry" />
        </mxCell>
        <mxCell id="qC7FanokqbY84IqSl47z-16" value="" style="rounded=0;whiteSpace=wrap;html=1;" parent="qC7FanokqbY84IqSl47z-6" vertex="1">
          <mxGeometry x="121.53263403263404" y="207.8125" width="226.02564102564108" height="21.875" as="geometry" />
        </mxCell>
        <mxCell id="qC7FanokqbY84IqSl47z-15" value="" style="rounded=0;whiteSpace=wrap;html=1;" parent="qC7FanokqbY84IqSl47z-6" vertex="1">
          <mxGeometry x="121.53263403263404" y="136.71875" width="226.02564102564108" height="21.875" as="geometry" />
        </mxCell>
        <mxCell id="qC7FanokqbY84IqSl47z-18" value="E-mail adresa" style="text;html=1;strokeColor=none;fillColor=none;align=left;verticalAlign=middle;whiteSpace=wrap;rounded=0;" parent="qC7FanokqbY84IqSl47z-6" vertex="1">
          <mxGeometry x="120" y="106.72" width="98.47" height="30" as="geometry" />
        </mxCell>
        <mxCell id="qC7FanokqbY84IqSl47z-20" value="Lozinka" style="text;html=1;strokeColor=none;fillColor=none;align=left;verticalAlign=middle;whiteSpace=wrap;rounded=0;" parent="qC7FanokqbY84IqSl47z-6" vertex="1">
          <mxGeometry x="120" y="177.81000000000006" width="98.47" height="30" as="geometry" />
        </mxCell>
        <mxCell id="T8KuTs-rTGLV_aXuocK9-2" value="*ovaj page vide svi*" style="text;strokeColor=none;fillColor=none;html=1;fontSize=24;fontStyle=1;verticalAlign=middle;align=center;" vertex="1" parent="1">
          <mxGeometry x="370" y="20" width="420" height="40" as="geometry" />
        </mxCell>
      </root>
    </mxGraphModel>
  </diagram>
  <diagram name="Page 2" id="7Z2a4fKjSssAmQ8xNYsr">
    <mxGraphModel dx="1434" dy="758" grid="1" gridSize="10" guides="1" tooltips="1" connect="1" arrows="1" fold="1" page="1" pageScale="1" pageWidth="1100" pageHeight="850" background="#ffffff" math="0" shadow="0">
      <root>
        <mxCell id="68EVCr7dwwUY06HPEHD--0" />
        <mxCell id="68EVCr7dwwUY06HPEHD--1" parent="68EVCr7dwwUY06HPEHD--0" />
        <mxCell id="68EVCr7dwwUY06HPEHD--2" value="" style="strokeWidth=1;shadow=0;dashed=0;align=center;html=1;shape=mxgraph.mockup.containers.browserWindow;rSize=0;strokeColor=#666666;mainText=,;recursiveResize=0;rounded=0;labelBackgroundColor=none;fontFamily=Verdana;fontSize=12;container=0;" parent="68EVCr7dwwUY06HPEHD--1" vertex="1">
          <mxGeometry x="25" y="15" width="1050" height="820" as="geometry" />
        </mxCell>
        <mxCell id="68EVCr7dwwUY06HPEHD--3" value="Page 2" style="strokeWidth=1;shadow=0;dashed=0;align=center;html=1;shape=mxgraph.mockup.containers.anchor;fontSize=17;fontColor=#666666;align=left;" parent="68EVCr7dwwUY06HPEHD--1" vertex="1">
          <mxGeometry x="85" y="27" width="110" height="26" as="geometry" />
        </mxCell>
        <mxCell id="68EVCr7dwwUY06HPEHD--4" value="https://www.default.com" style="strokeWidth=1;shadow=0;dashed=0;align=center;html=1;shape=mxgraph.mockup.containers.anchor;rSize=0;fontSize=17;fontColor=#666666;align=left;" parent="68EVCr7dwwUY06HPEHD--1" vertex="1">
          <mxGeometry x="155" y="75" width="250" height="26" as="geometry" />
        </mxCell>
        <mxCell id="JgjORzVcveN_crzZ-qYL-1" value="" style="rounded=0;whiteSpace=wrap;html=1;" parent="68EVCr7dwwUY06HPEHD--1" vertex="1">
          <mxGeometry x="278" y="190" width="545" height="540" as="geometry" />
        </mxCell>
        <mxCell id="JgjORzVcveN_crzZ-qYL-0" value="&lt;font style=&quot;font-size: 30px;&quot;&gt;Registracija - novi pacijent&lt;/font&gt;" style="text;strokeColor=none;fillColor=none;html=1;fontSize=24;fontStyle=1;verticalAlign=middle;align=left;" parent="68EVCr7dwwUY06HPEHD--1" vertex="1">
          <mxGeometry x="310" y="200" width="390" height="50" as="geometry" />
        </mxCell>
        <mxCell id="JgjORzVcveN_crzZ-qYL-3" value="Ime i prezime" style="fillColor=none;strokeColor=none;align=left;fontSize=14;" parent="68EVCr7dwwUY06HPEHD--1" vertex="1">
          <mxGeometry width="260" height="40" relative="1" as="geometry">
            <mxPoint x="310" y="270" as="offset" />
          </mxGeometry>
        </mxCell>
        <mxCell id="JgjORzVcveN_crzZ-qYL-4" value="" style="html=1;shadow=0;dashed=0;shape=mxgraph.bootstrap.rrect;rSize=5;fillColor=none;strokeColor=#999999;align=left;spacing=15;fontSize=14;fontColor=#6C767D;" parent="68EVCr7dwwUY06HPEHD--1" vertex="1">
          <mxGeometry width="390" height="30" relative="1" as="geometry">
            <mxPoint x="310" y="310" as="offset" />
          </mxGeometry>
        </mxCell>
        <mxCell id="JgjORzVcveN_crzZ-qYL-6" value="Lozinka" style="fillColor=none;strokeColor=none;align=left;fontSize=14;" parent="68EVCr7dwwUY06HPEHD--1" vertex="1">
          <mxGeometry width="260" height="40" relative="1" as="geometry">
            <mxPoint x="310" y="480" as="offset" />
          </mxGeometry>
        </mxCell>
        <mxCell id="JgjORzVcveN_crzZ-qYL-7" value="" style="html=1;shadow=0;dashed=0;shape=mxgraph.bootstrap.rrect;rSize=5;fillColor=none;strokeColor=#999999;align=left;spacing=15;fontSize=14;fontColor=#6C767D;" parent="68EVCr7dwwUY06HPEHD--1" vertex="1">
          <mxGeometry width="390" height="30" relative="1" as="geometry">
            <mxPoint x="310" y="520" as="offset" />
          </mxGeometry>
        </mxCell>
        <mxCell id="JgjORzVcveN_crzZ-qYL-8" value="Zapamti me" style="html=1;shadow=0;dashed=0;shape=mxgraph.bootstrap.rrect;rSize=2;fillColor=#EDEDED;strokeColor=#999999;align=left;fontSize=14;fontColor=#000000;labelPosition=right;verticalLabelPosition=middle;verticalAlign=middle;spacingLeft=5;spacingTop=-2;gradientColor=#DEDEDE;" parent="68EVCr7dwwUY06HPEHD--1" vertex="1">
          <mxGeometry width="10" height="10" relative="1" as="geometry">
            <mxPoint x="310" y="560" as="offset" />
          </mxGeometry>
        </mxCell>
        <mxCell id="JgjORzVcveN_crzZ-qYL-9" value="Registriraj se" style="html=1;shadow=0;dashed=0;shape=mxgraph.bootstrap.rrect;rSize=5;fillColor=#0085FC;strokeColor=none;align=center;fontSize=14;fontColor=#FFFFFF;" parent="68EVCr7dwwUY06HPEHD--1" vertex="1">
          <mxGeometry width="220" height="40" relative="1" as="geometry">
            <mxPoint x="570" y="670" as="offset" />
          </mxGeometry>
        </mxCell>
        <mxCell id="qFvgxYFD9odB63UrFAiN-0" value="&lt;font color=&quot;#ffffff&quot;&gt;Odustani&lt;/font&gt;" style="html=1;shadow=0;dashed=0;shape=mxgraph.bootstrap.rrect;rSize=5;fillColor=#98A2B0;strokeColor=#6c8ebf;align=center;fontSize=14;" parent="68EVCr7dwwUY06HPEHD--1" vertex="1">
          <mxGeometry x="310" y="670" width="220" height="40" as="geometry" />
        </mxCell>
        <mxCell id="qFvgxYFD9odB63UrFAiN-1" value="E-mail adresa" style="fillColor=none;strokeColor=none;align=left;fontSize=14;" parent="68EVCr7dwwUY06HPEHD--1" vertex="1">
          <mxGeometry x="310" y="340" width="260" height="40" as="geometry" />
        </mxCell>
        <mxCell id="qFvgxYFD9odB63UrFAiN-2" value="" style="html=1;shadow=0;dashed=0;shape=mxgraph.bootstrap.rrect;rSize=5;fillColor=none;strokeColor=#999999;align=left;spacing=15;fontSize=14;fontColor=#6C767D;" parent="68EVCr7dwwUY06HPEHD--1" vertex="1">
          <mxGeometry x="310" y="380" width="390" height="30" as="geometry" />
        </mxCell>
        <mxCell id="qFvgxYFD9odB63UrFAiN-3" value="MBO" style="fillColor=none;strokeColor=none;align=left;fontSize=14;" parent="68EVCr7dwwUY06HPEHD--1" vertex="1">
          <mxGeometry x="310" y="410" width="260" height="40" as="geometry" />
        </mxCell>
        <mxCell id="qFvgxYFD9odB63UrFAiN-4" value="" style="html=1;shadow=0;dashed=0;shape=mxgraph.bootstrap.rrect;rSize=5;fillColor=none;strokeColor=#999999;align=left;spacing=15;fontSize=14;fontColor=#6C767D;" parent="68EVCr7dwwUY06HPEHD--1" vertex="1">
          <mxGeometry x="310" y="450" width="390" height="30" as="geometry" />
        </mxCell>
        <mxCell id="yTvr22VXza8jWi3XABzq-0" value="*ovaj page vide svi*" style="text;strokeColor=none;fillColor=none;html=1;fontSize=24;fontStyle=1;verticalAlign=middle;align=center;" vertex="1" parent="68EVCr7dwwUY06HPEHD--1">
          <mxGeometry x="370" y="20" width="420" height="40" as="geometry" />
        </mxCell>
      </root>
    </mxGraphModel>
  </diagram>
  <diagram name="Page 3" id="90ajAMpbpxIdkd4LUQIp">
    <mxGraphModel dx="1434" dy="758" grid="1" gridSize="10" guides="1" tooltips="1" connect="1" arrows="1" fold="1" page="1" pageScale="1" pageWidth="1100" pageHeight="850" background="#ffffff" math="0" shadow="0">
      <root>
        <mxCell id="dp846cBmucz0jCjNZ9nw-0" />
        <mxCell id="dp846cBmucz0jCjNZ9nw-1" parent="dp846cBmucz0jCjNZ9nw-0" />
        <mxCell id="dp846cBmucz0jCjNZ9nw-2" value="" style="strokeWidth=1;shadow=0;dashed=0;align=center;html=1;shape=mxgraph.mockup.containers.browserWindow;rSize=0;strokeColor=#666666;mainText=,;recursiveResize=0;rounded=0;labelBackgroundColor=none;fontFamily=Verdana;fontSize=12;container=0;" parent="dp846cBmucz0jCjNZ9nw-1" vertex="1">
          <mxGeometry x="25" y="15" width="1050" height="820" as="geometry" />
        </mxCell>
        <mxCell id="dp846cBmucz0jCjNZ9nw-3" value="Page 3" style="strokeWidth=1;shadow=0;dashed=0;align=center;html=1;shape=mxgraph.mockup.containers.anchor;fontSize=17;fontColor=#666666;align=left;" parent="dp846cBmucz0jCjNZ9nw-1" vertex="1">
          <mxGeometry x="85" y="27" width="110" height="26" as="geometry" />
        </mxCell>
        <mxCell id="dp846cBmucz0jCjNZ9nw-4" value="https://www.default.com" style="strokeWidth=1;shadow=0;dashed=0;align=center;html=1;shape=mxgraph.mockup.containers.anchor;rSize=0;fontSize=17;fontColor=#666666;align=left;" parent="dp846cBmucz0jCjNZ9nw-1" vertex="1">
          <mxGeometry x="155" y="75" width="250" height="26" as="geometry" />
        </mxCell>
        <mxCell id="B_HMZaKovBQHZSgaj6kg-6" value="&lt;font style=&quot;font-size: 30px;&quot;&gt;Moja naručivanja i pregledi&lt;/font&gt;" style="text;strokeColor=none;fillColor=none;html=1;fontSize=24;fontStyle=1;verticalAlign=middle;align=left;" parent="dp846cBmucz0jCjNZ9nw-1" vertex="1">
          <mxGeometry x="140" y="170" width="440" height="70" as="geometry" />
        </mxCell>
        <mxCell id="B_HMZaKovBQHZSgaj6kg-46" value="Assets" style="childLayout=tableLayout;recursiveResize=0;strokeColor=#98bf21;fillColor=default;shadow=1;rounded=0;resizeLastRow=0;" parent="dp846cBmucz0jCjNZ9nw-1" vertex="1">
          <mxGeometry x="140" y="265" width="860" height="359.0000000000001" as="geometry" />
        </mxCell>
        <mxCell id="B_HMZaKovBQHZSgaj6kg-47" style="shape=tableRow;horizontal=0;startSize=0;swimlaneHead=0;swimlaneBody=0;top=0;left=0;bottom=0;right=0;dropTarget=0;collapsible=0;recursiveResize=0;expand=0;fontStyle=0;strokeColor=inherit;fillColor=#ffffff;" parent="B_HMZaKovBQHZSgaj6kg-46" vertex="1">
          <mxGeometry width="860" height="45" as="geometry" />
        </mxCell>
        <mxCell id="B_HMZaKovBQHZSgaj6kg-48" value="Datum i vrijeme" style="connectable=0;recursiveResize=0;strokeColor=inherit;fillColor=#98A2B0;align=center;fontStyle=1;fontColor=#FFFFFF;html=1;" parent="B_HMZaKovBQHZSgaj6kg-47" vertex="1">
          <mxGeometry width="240" height="45" as="geometry">
            <mxRectangle width="240" height="45" as="alternateBounds" />
          </mxGeometry>
        </mxCell>
        <mxCell id="B_HMZaKovBQHZSgaj6kg-49" value="Terapija, doktor, itd. (ovo podijeliti na više stupaca)" style="connectable=0;recursiveResize=0;strokeColor=inherit;fillColor=#98A2B0;align=center;fontStyle=1;fontColor=#FFFFFF;html=1;" parent="B_HMZaKovBQHZSgaj6kg-47" vertex="1">
          <mxGeometry x="240" width="370" height="45" as="geometry">
            <mxRectangle width="370" height="45" as="alternateBounds" />
          </mxGeometry>
        </mxCell>
        <mxCell id="B_HMZaKovBQHZSgaj6kg-50" value="Status" style="connectable=0;recursiveResize=0;strokeColor=inherit;fillColor=#98A2B0;align=center;fontStyle=1;fontColor=#FFFFFF;html=1;" parent="B_HMZaKovBQHZSgaj6kg-47" vertex="1">
          <mxGeometry x="610" width="250" height="45" as="geometry">
            <mxRectangle width="250" height="45" as="alternateBounds" />
          </mxGeometry>
        </mxCell>
        <mxCell id="B_HMZaKovBQHZSgaj6kg-51" value="" style="shape=tableRow;horizontal=0;startSize=0;swimlaneHead=0;swimlaneBody=0;top=0;left=0;bottom=0;right=0;dropTarget=0;collapsible=0;recursiveResize=0;expand=0;fontStyle=0;strokeColor=inherit;fillColor=#ffffff;" parent="B_HMZaKovBQHZSgaj6kg-46" vertex="1">
          <mxGeometry y="45" width="860" height="79" as="geometry" />
        </mxCell>
        <mxCell id="B_HMZaKovBQHZSgaj6kg-52" value="30.3.2024. u 9:00" style="connectable=0;recursiveResize=0;strokeColor=inherit;fillColor=inherit;align=center;whiteSpace=wrap;html=1;" parent="B_HMZaKovBQHZSgaj6kg-51" vertex="1">
          <mxGeometry width="240" height="79" as="geometry">
            <mxRectangle width="240" height="79" as="alternateBounds" />
          </mxGeometry>
        </mxCell>
        <mxCell id="B_HMZaKovBQHZSgaj6kg-53" value="Terapija za tendinitis, dr. Tomislav Šarić, 1. dolazak, ..." style="connectable=0;recursiveResize=0;strokeColor=inherit;fillColor=inherit;align=center;whiteSpace=wrap;html=1;" parent="B_HMZaKovBQHZSgaj6kg-51" vertex="1">
          <mxGeometry x="240" width="370" height="79" as="geometry">
            <mxRectangle width="370" height="79" as="alternateBounds" />
          </mxGeometry>
        </mxCell>
        <mxCell id="B_HMZaKovBQHZSgaj6kg-54" value="ČEKA NA ODOBRENJE" style="connectable=0;recursiveResize=0;strokeColor=inherit;fillColor=inherit;align=center;whiteSpace=wrap;html=1;" parent="B_HMZaKovBQHZSgaj6kg-51" vertex="1">
          <mxGeometry x="610" width="250" height="79" as="geometry">
            <mxRectangle width="250" height="79" as="alternateBounds" />
          </mxGeometry>
        </mxCell>
        <mxCell id="B_HMZaKovBQHZSgaj6kg-55" value="" style="shape=tableRow;horizontal=0;startSize=0;swimlaneHead=0;swimlaneBody=0;top=0;left=0;bottom=0;right=0;dropTarget=0;collapsible=0;recursiveResize=0;expand=0;fontStyle=1;strokeColor=inherit;fillColor=#EAF2D3;" parent="B_HMZaKovBQHZSgaj6kg-46" vertex="1">
          <mxGeometry y="124" width="860" height="77" as="geometry" />
        </mxCell>
        <mxCell id="B_HMZaKovBQHZSgaj6kg-56" value="16.12.2023. u 14:00" style="connectable=0;recursiveResize=0;strokeColor=#36393d;fillColor=#eeeeee;whiteSpace=wrap;html=1;" parent="B_HMZaKovBQHZSgaj6kg-55" vertex="1">
          <mxGeometry width="240" height="77" as="geometry">
            <mxRectangle width="240" height="77" as="alternateBounds" />
          </mxGeometry>
        </mxCell>
        <mxCell id="B_HMZaKovBQHZSgaj6kg-57" value="..." style="connectable=0;recursiveResize=0;strokeColor=#36393d;fillColor=#eeeeee;whiteSpace=wrap;html=1;" parent="B_HMZaKovBQHZSgaj6kg-55" vertex="1">
          <mxGeometry x="240" width="370" height="77" as="geometry">
            <mxRectangle width="370" height="77" as="alternateBounds" />
          </mxGeometry>
        </mxCell>
        <mxCell id="B_HMZaKovBQHZSgaj6kg-58" value="ODOBRENO" style="connectable=0;recursiveResize=0;strokeColor=#36393d;fillColor=#eeeeee;whiteSpace=wrap;html=1;" parent="B_HMZaKovBQHZSgaj6kg-55" vertex="1">
          <mxGeometry x="610" width="250" height="77" as="geometry">
            <mxRectangle width="250" height="77" as="alternateBounds" />
          </mxGeometry>
        </mxCell>
        <mxCell id="B_HMZaKovBQHZSgaj6kg-59" value="" style="shape=tableRow;horizontal=0;startSize=0;swimlaneHead=0;swimlaneBody=0;top=0;left=0;bottom=0;right=0;dropTarget=0;collapsible=0;recursiveResize=0;expand=0;fontStyle=0;strokeColor=inherit;fillColor=#ffffff;" parent="B_HMZaKovBQHZSgaj6kg-46" vertex="1">
          <mxGeometry y="201" width="860" height="81" as="geometry" />
        </mxCell>
        <mxCell id="B_HMZaKovBQHZSgaj6kg-60" value="12.4.2014. u 11:00" style="connectable=0;recursiveResize=0;strokeColor=inherit;fillColor=inherit;fontStyle=0;align=center;whiteSpace=wrap;html=1;" parent="B_HMZaKovBQHZSgaj6kg-59" vertex="1">
          <mxGeometry width="240" height="81" as="geometry">
            <mxRectangle width="240" height="81" as="alternateBounds" />
          </mxGeometry>
        </mxCell>
        <mxCell id="B_HMZaKovBQHZSgaj6kg-61" value="..." style="connectable=0;recursiveResize=0;strokeColor=inherit;fillColor=inherit;fontStyle=0;align=center;whiteSpace=wrap;html=1;" parent="B_HMZaKovBQHZSgaj6kg-59" vertex="1">
          <mxGeometry x="240" width="370" height="81" as="geometry">
            <mxRectangle width="370" height="81" as="alternateBounds" />
          </mxGeometry>
        </mxCell>
        <mxCell id="B_HMZaKovBQHZSgaj6kg-62" value="OBAVLJENO" style="connectable=0;recursiveResize=0;strokeColor=inherit;fillColor=inherit;fontStyle=0;align=center;whiteSpace=wrap;html=1;" parent="B_HMZaKovBQHZSgaj6kg-59" vertex="1">
          <mxGeometry x="610" width="250" height="81" as="geometry">
            <mxRectangle width="250" height="81" as="alternateBounds" />
          </mxGeometry>
        </mxCell>
        <mxCell id="B_HMZaKovBQHZSgaj6kg-63" value="" style="shape=tableRow;horizontal=0;startSize=0;swimlaneHead=0;swimlaneBody=0;top=0;left=0;bottom=0;right=0;dropTarget=0;collapsible=0;recursiveResize=0;expand=0;fontStyle=1;strokeColor=inherit;fillColor=#EAF2D3;" parent="B_HMZaKovBQHZSgaj6kg-46" vertex="1">
          <mxGeometry y="282" width="860" height="77" as="geometry" />
        </mxCell>
        <mxCell id="B_HMZaKovBQHZSgaj6kg-64" value="1.3.2008. u 12:00" style="connectable=0;recursiveResize=0;strokeColor=#36393d;fillColor=#eeeeee;whiteSpace=wrap;html=1;" parent="B_HMZaKovBQHZSgaj6kg-63" vertex="1">
          <mxGeometry width="240" height="77" as="geometry">
            <mxRectangle width="240" height="77" as="alternateBounds" />
          </mxGeometry>
        </mxCell>
        <mxCell id="B_HMZaKovBQHZSgaj6kg-65" value="..." style="connectable=0;recursiveResize=0;strokeColor=#36393d;fillColor=#eeeeee;whiteSpace=wrap;html=1;" parent="B_HMZaKovBQHZSgaj6kg-63" vertex="1">
          <mxGeometry x="240" width="370" height="77" as="geometry">
            <mxRectangle width="370" height="77" as="alternateBounds" />
          </mxGeometry>
        </mxCell>
        <mxCell id="B_HMZaKovBQHZSgaj6kg-66" value="ISTEKLO - PROPUŠTEN DOLAZAK" style="connectable=0;recursiveResize=0;strokeColor=#36393d;fillColor=#eeeeee;whiteSpace=wrap;html=1;" parent="B_HMZaKovBQHZSgaj6kg-63" vertex="1">
          <mxGeometry x="610" width="250" height="77" as="geometry">
            <mxRectangle width="250" height="77" as="alternateBounds" />
          </mxGeometry>
        </mxCell>
        <mxCell id="B_HMZaKovBQHZSgaj6kg-67" value="+&amp;nbsp; &amp;nbsp;NOVI PREGLED" style="rounded=1;whiteSpace=wrap;html=1;fillColor=#60a917;strokeColor=#2D7600;fontColor=#ffffff;" parent="dp846cBmucz0jCjNZ9nw-1" vertex="1">
          <mxGeometry x="860" y="185" width="140" height="40" as="geometry" />
        </mxCell>
        <mxCell id="oFqjRL5489UMKO5IAP8--0" value="*ovaj page vide samo pacijenti*" style="text;strokeColor=none;fillColor=none;html=1;fontSize=24;fontStyle=1;verticalAlign=middle;align=center;" vertex="1" parent="dp846cBmucz0jCjNZ9nw-1">
          <mxGeometry x="370" y="20" width="420" height="40" as="geometry" />
        </mxCell>
      </root>
    </mxGraphModel>
  </diagram>
  <diagram name="Page 4" id="nHnOCcB1vMQAvQbgnFzg">
    <mxGraphModel dx="1434" dy="758" grid="1" gridSize="10" guides="1" tooltips="1" connect="1" arrows="1" fold="1" page="1" pageScale="1" pageWidth="1100" pageHeight="850" background="#ffffff" math="0" shadow="0">
      <root>
        <mxCell id="mhC85ykQoHwD0zVejbFD-0" />
        <mxCell id="mhC85ykQoHwD0zVejbFD-1" parent="mhC85ykQoHwD0zVejbFD-0" />
        <mxCell id="mhC85ykQoHwD0zVejbFD-2" value="" style="strokeWidth=1;shadow=0;dashed=0;align=center;html=1;shape=mxgraph.mockup.containers.browserWindow;rSize=0;strokeColor=#666666;mainText=,;recursiveResize=0;rounded=0;labelBackgroundColor=none;fontFamily=Verdana;fontSize=12;container=0;" parent="mhC85ykQoHwD0zVejbFD-1" vertex="1">
          <mxGeometry x="25" y="15" width="1050" height="820" as="geometry" />
        </mxCell>
        <mxCell id="mhC85ykQoHwD0zVejbFD-3" value="Page 4" style="strokeWidth=1;shadow=0;dashed=0;align=center;html=1;shape=mxgraph.mockup.containers.anchor;fontSize=17;fontColor=#666666;align=left;" parent="mhC85ykQoHwD0zVejbFD-1" vertex="1">
          <mxGeometry x="85" y="27" width="110" height="26" as="geometry" />
        </mxCell>
        <mxCell id="mhC85ykQoHwD0zVejbFD-4" value="https://www.default.com" style="strokeWidth=1;shadow=0;dashed=0;align=center;html=1;shape=mxgraph.mockup.containers.anchor;rSize=0;fontSize=17;fontColor=#666666;align=left;" parent="mhC85ykQoHwD0zVejbFD-1" vertex="1">
          <mxGeometry x="155" y="75" width="250" height="26" as="geometry" />
        </mxCell>
        <mxCell id="9R_EDQl_8vWNvRWWjy_1-0" value="&lt;font style=&quot;font-size: 30px;&quot;&gt;Naručivanje na novu terapiju&lt;/font&gt;" style="text;strokeColor=none;fillColor=none;html=1;fontSize=24;fontStyle=1;verticalAlign=middle;align=left;" parent="mhC85ykQoHwD0zVejbFD-1" vertex="1">
          <mxGeometry x="220" y="160" width="585" height="90" as="geometry" />
        </mxCell>
        <mxCell id="PL6BN8Lv3kACrvSu8Z8d-0" value="" style="shape=image;html=1;verticalAlign=top;verticalLabelPosition=bottom;labelBackgroundColor=#ffffff;imageAspect=0;aspect=fixed;image=https://cdn4.iconfinder.com/data/icons/essential-app-2/16/back-left-arrow-botton-128.png" parent="mhC85ykQoHwD0zVejbFD-1" vertex="1">
          <mxGeometry x="100" y="186" width="38" height="38" as="geometry" />
        </mxCell>
        <mxCell id="PL6BN8Lv3kACrvSu8Z8d-1" value="" style="rounded=0;whiteSpace=wrap;html=1;" parent="mhC85ykQoHwD0zVejbFD-1" vertex="1">
          <mxGeometry x="150" y="250" width="830" height="550" as="geometry" />
        </mxCell>
        <mxCell id="PL6BN8Lv3kACrvSu8Z8d-4" value="VRSTA REHABILITACIJE:" style="fillColor=none;strokeColor=none;align=left;fontSize=14;" parent="mhC85ykQoHwD0zVejbFD-1" vertex="1">
          <mxGeometry width="260" height="40" relative="1" as="geometry">
            <mxPoint x="180" y="260" as="offset" />
          </mxGeometry>
        </mxCell>
        <mxCell id="PL6BN8Lv3kACrvSu8Z8d-16" value="Komentari i napomene za liječnika:" style="fillColor=none;strokeColor=none;align=left;fontSize=14;" parent="mhC85ykQoHwD0zVejbFD-1" vertex="1">
          <mxGeometry width="260" height="40" relative="1" as="geometry">
            <mxPoint x="180" y="630" as="offset" />
          </mxGeometry>
        </mxCell>
        <mxCell id="PL6BN8Lv3kACrvSu8Z8d-17" value="" style="html=1;shadow=0;dashed=0;shape=mxgraph.bootstrap.rrect;rSize=5;fillColor=none;strokeColor=#999999;align=left;spacing=15;fontSize=14;fontColor=#6C767D;" parent="mhC85ykQoHwD0zVejbFD-1" vertex="1">
          <mxGeometry width="730" height="50" relative="1" as="geometry">
            <mxPoint x="180" y="660" as="offset" />
          </mxGeometry>
        </mxCell>
        <mxCell id="PL6BN8Lv3kACrvSu8Z8d-18" value="Predaj zahtjev" style="rounded=1;whiteSpace=wrap;html=1;fillColor=#1ba1e2;fontColor=#ffffff;strokeColor=#006EAF;" parent="mhC85ykQoHwD0zVejbFD-1" vertex="1">
          <mxGeometry x="740" y="740" width="170" height="30" as="geometry" />
        </mxCell>
        <mxCell id="PL6BN8Lv3kACrvSu8Z8d-19" value="" style="sketch=0;html=1;aspect=fixed;shadow=0;verticalAlign=top;labelPosition=center;verticalLabelPosition=bottom;shape=mxgraph.gcp2.check;" parent="mhC85ykQoHwD0zVejbFD-1" vertex="1">
          <mxGeometry x="757" y="748" width="18.75" height="15" as="geometry" />
        </mxCell>
        <mxCell id="PL6BN8Lv3kACrvSu8Z8d-20" value="Fizikalna terapija teniskog lakta" style="html=1;shadow=0;dashed=0;shape=mxgraph.bootstrap.rrect;rSize=5;strokeColor=#505050;strokeWidth=1;fillColor=#ffffff;fontColor=#777777;whiteSpace=wrap;align=left;verticalAlign=middle;fontStyle=0;fontSize=14;spacingRight=0;spacing=17;" parent="mhC85ykQoHwD0zVejbFD-1" vertex="1">
          <mxGeometry x="180" y="290" width="310" height="33" as="geometry" />
        </mxCell>
        <mxCell id="PL6BN8Lv3kACrvSu8Z8d-21" value="" style="shape=triangle;direction=south;fillColor=#495057;strokeColor=none;perimeter=none;" parent="PL6BN8Lv3kACrvSu8Z8d-20" vertex="1">
          <mxGeometry x="1" y="0.5" width="10" height="5" relative="1" as="geometry">
            <mxPoint x="-17" y="-2.5" as="offset" />
          </mxGeometry>
        </mxCell>
        <mxCell id="ClX2ZCwo4UVvXy9kYSoj-3" value="" style="rounded=1;fillColor=#ffffff;strokeColor=#DFE1E5;shadow=1;arcSize=1;fontSize=12;fontColor=#596780;align=center;html=1;verticalAlign=top;spacingTop=5;" parent="mhC85ykQoHwD0zVejbFD-1" vertex="1">
          <mxGeometry x="530" y="320" width="360" height="120" as="geometry" />
        </mxCell>
        <mxCell id="ClX2ZCwo4UVvXy9kYSoj-4" value="POVIJEST TERAPIJA" style="html=1;fillColor=none;strokeColor=none;fontSize=11;align=left;fontColor=#596780;whiteSpace=wrap;fontStyle=1" parent="ClX2ZCwo4UVvXy9kYSoj-3" vertex="1">
          <mxGeometry width="140" height="20" relative="1" as="geometry">
            <mxPoint x="20" y="15" as="offset" />
          </mxGeometry>
        </mxCell>
        <mxCell id="ClX2ZCwo4UVvXy9kYSoj-5" value="Prikaz 2 od 15 zadnjih terapija" style="html=1;fillColor=none;strokeColor=none;fontSize=12;align=left;fontColor=#596780;whiteSpace=wrap;fontStyle=0" parent="ClX2ZCwo4UVvXy9kYSoj-3" vertex="1">
          <mxGeometry width="200" height="20" relative="1" as="geometry">
            <mxPoint x="160" y="15" as="offset" />
          </mxGeometry>
        </mxCell>
        <mxCell id="ClX2ZCwo4UVvXy9kYSoj-6" value="&lt;b&gt;IR-83&lt;/b&gt;&amp;nbsp;Treća doza struje za teniski lakat" style="shape=ellipse;fillColor=#00A8E5;strokeColor=none;fontSize=12;align=left;fontColor=#596780;fontStyle=0;labelPosition=right;verticalLabelPosition=middle;verticalAlign=middle;html=1;spacingLeft=5" parent="ClX2ZCwo4UVvXy9kYSoj-3" vertex="1">
          <mxGeometry width="20" height="20" relative="1" as="geometry">
            <mxPoint x="20" y="45" as="offset" />
          </mxGeometry>
        </mxCell>
        <mxCell id="ClX2ZCwo4UVvXy9kYSoj-7" value="" style="html=1;shadow=0;dashed=0;shape=mxgraph.atlassian.location;fillColor=#ffffff;strokeColor=none;flipV=1;html=1;" parent="ClX2ZCwo4UVvXy9kYSoj-6" vertex="1">
          <mxGeometry x="0.5" y="0.5" width="8" height="10" relative="1" as="geometry">
            <mxPoint x="-4" y="-5" as="offset" />
          </mxGeometry>
        </mxCell>
        <mxCell id="ClX2ZCwo4UVvXy9kYSoj-10" value="&lt;b&gt;IR-81&lt;/b&gt;&amp;nbsp;Pregled adhezivnog kapsulitisa ramena" style="shape=ellipse;fillColor=#00A8E5;strokeColor=none;fontSize=12;align=left;fontColor=#596780;fontStyle=0;labelPosition=right;verticalLabelPosition=middle;verticalAlign=middle;html=1;spacingLeft=5" parent="ClX2ZCwo4UVvXy9kYSoj-3" vertex="1">
          <mxGeometry width="20" height="20" relative="1" as="geometry">
            <mxPoint x="20" y="80" as="offset" />
          </mxGeometry>
        </mxCell>
        <mxCell id="ClX2ZCwo4UVvXy9kYSoj-11" value="" style="html=1;shadow=0;dashed=0;shape=mxgraph.atlassian.location;fillColor=#ffffff;strokeColor=none;flipV=1;html=1;" parent="ClX2ZCwo4UVvXy9kYSoj-10" vertex="1">
          <mxGeometry x="0.5" y="0.5" width="8" height="10" relative="1" as="geometry">
            <mxPoint x="-4" y="-5" as="offset" />
          </mxGeometry>
        </mxCell>
        <mxCell id="ClX2ZCwo4UVvXy9kYSoj-14" value="REFERENCA NA PROŠLU TERAPIJU (OPCIONALNO):" style="fillColor=none;strokeColor=none;align=left;fontSize=14;" parent="mhC85ykQoHwD0zVejbFD-1" vertex="1">
          <mxGeometry x="530" y="260" width="403" height="40" as="geometry" />
        </mxCell>
        <mxCell id="ClX2ZCwo4UVvXy9kYSoj-1" value="IR-83" style="rounded=1;arcSize=9;fillColor=#ffffff;strokeColor=#4C9AFF;html=1;strokeWidth=2;spacingLeft=5;fontColor=#000000;align=left" parent="mhC85ykQoHwD0zVejbFD-1" vertex="1">
          <mxGeometry x="530" y="290" width="360" height="33" as="geometry" />
        </mxCell>
        <mxCell id="ClX2ZCwo4UVvXy9kYSoj-2" value="" style="html=1;shadow=0;dashed=0;shape=mxgraph.atlassian.close;fillColor=#97A0AF;strokeColor=none" parent="ClX2ZCwo4UVvXy9kYSoj-1" vertex="1">
          <mxGeometry x="1" y="0.5" width="14" height="14" relative="1" as="geometry">
            <mxPoint x="-28" y="-7" as="offset" />
          </mxGeometry>
        </mxCell>
        <mxCell id="ClX2ZCwo4UVvXy9kYSoj-17" value="" style="shape=ext;double=1;rounded=1;whiteSpace=wrap;html=1;" parent="mhC85ykQoHwD0zVejbFD-1" vertex="1">
          <mxGeometry x="180" y="450" width="730" height="180" as="geometry" />
        </mxCell>
        <mxCell id="ClX2ZCwo4UVvXy9kYSoj-18" value="ODABIR TERMINA:" style="fillColor=none;strokeColor=none;align=left;fontSize=14;" parent="mhC85ykQoHwD0zVejbFD-1" vertex="1">
          <mxGeometry x="195" y="418" width="260" height="40" as="geometry" />
        </mxCell>
        <mxCell id="ClX2ZCwo4UVvXy9kYSoj-19" value="ili" style="text;strokeColor=none;fillColor=none;html=1;fontSize=24;fontStyle=1;verticalAlign=middle;align=center;" parent="mhC85ykQoHwD0zVejbFD-1" vertex="1">
          <mxGeometry x="472.5" y="520" width="100" height="40" as="geometry" />
        </mxCell>
        <mxCell id="ClX2ZCwo4UVvXy9kYSoj-20" value="Prvi slobodni termini:" style="text;html=1;strokeColor=none;fillColor=none;align=center;verticalAlign=middle;whiteSpace=wrap;rounded=0;fontFamily=Lucida Console;fontStyle=6;fontSize=18;" parent="mhC85ykQoHwD0zVejbFD-1" vertex="1">
          <mxGeometry x="195" y="458" width="275" height="30" as="geometry" />
        </mxCell>
        <mxCell id="ClX2ZCwo4UVvXy9kYSoj-21" value="Prilagođeni odabir:" style="text;html=1;strokeColor=none;fillColor=none;align=center;verticalAlign=middle;whiteSpace=wrap;rounded=0;fontFamily=Lucida Console;fontStyle=6;fontSize=18;" parent="mhC85ykQoHwD0zVejbFD-1" vertex="1">
          <mxGeometry x="550" y="458" width="275" height="30" as="geometry" />
        </mxCell>
        <mxCell id="ClX2ZCwo4UVvXy9kYSoj-22" value="15.1.2024. u 12:00" style="whiteSpace=wrap;html=1;shape=mxgraph.basic.cloud_rect;fillColor=#fff2cc;strokeColor=#d6b656;" parent="mhC85ykQoHwD0zVejbFD-1" vertex="1">
          <mxGeometry x="225" y="497" width="200" height="28" as="geometry" />
        </mxCell>
        <mxCell id="ClX2ZCwo4UVvXy9kYSoj-23" value="17.1.2024. u 14:00" style="whiteSpace=wrap;html=1;shape=mxgraph.basic.cloud_rect;fillColor=#fff2cc;strokeColor=#d6b656;" parent="mhC85ykQoHwD0zVejbFD-1" vertex="1">
          <mxGeometry x="225" y="533" width="200" height="28" as="geometry" />
        </mxCell>
        <mxCell id="ClX2ZCwo4UVvXy9kYSoj-24" value="17.1.2024. u 15:00" style="whiteSpace=wrap;html=1;shape=mxgraph.basic.cloud_rect;fillColor=#fff2cc;strokeColor=#d6b656;" parent="mhC85ykQoHwD0zVejbFD-1" vertex="1">
          <mxGeometry x="225" y="569" width="200" height="28" as="geometry" />
        </mxCell>
        <mxCell id="ClX2ZCwo4UVvXy9kYSoj-29" value="11.2.2024." style="rounded=1;arcSize=9;fillColor=#ffffff;align=left;spacingLeft=5;strokeColor=#0057D8;html=1;strokeWidth=2;fontColor=#253858;fontSize=12" parent="mhC85ykQoHwD0zVejbFD-1" vertex="1">
          <mxGeometry x="610" y="505" width="230" height="33" as="geometry" />
        </mxCell>
        <mxCell id="ClX2ZCwo4UVvXy9kYSoj-30" value="" style="shape=mxgraph.gmdl.calendar;fillColor=#253858;strokeColor=none" parent="ClX2ZCwo4UVvXy9kYSoj-29" vertex="1">
          <mxGeometry x="1" y="0.5" width="18" height="18" relative="1" as="geometry">
            <mxPoint x="-29" y="-9" as="offset" />
          </mxGeometry>
        </mxCell>
        <mxCell id="ClX2ZCwo4UVvXy9kYSoj-86" value="14:00" style="html=1;shadow=0;dashed=0;shape=mxgraph.bootstrap.rrect;rSize=5;strokeColor=#505050;strokeWidth=1;fillColor=#ffffff;fontColor=#777777;whiteSpace=wrap;align=left;verticalAlign=middle;fontStyle=0;fontSize=14;spacingRight=0;spacing=17;" parent="mhC85ykQoHwD0zVejbFD-1" vertex="1">
          <mxGeometry x="610" y="560" width="230" height="30" as="geometry" />
        </mxCell>
        <mxCell id="ClX2ZCwo4UVvXy9kYSoj-87" value="" style="shape=triangle;direction=south;fillColor=#495057;strokeColor=none;perimeter=none;" parent="ClX2ZCwo4UVvXy9kYSoj-86" vertex="1">
          <mxGeometry x="1" y="0.5" width="10" height="5" relative="1" as="geometry">
            <mxPoint x="-17" y="-2.5" as="offset" />
          </mxGeometry>
        </mxCell>
        <mxCell id="ClX2ZCwo4UVvXy9kYSoj-88" value="Datum:" style="text;html=1;strokeColor=none;fillColor=none;align=center;verticalAlign=middle;whiteSpace=wrap;rounded=0;" parent="mhC85ykQoHwD0zVejbFD-1" vertex="1">
          <mxGeometry x="600" y="488" width="60" height="15" as="geometry" />
        </mxCell>
        <mxCell id="ClX2ZCwo4UVvXy9kYSoj-89" value="Vrijeme:" style="text;html=1;strokeColor=none;fillColor=none;align=left;verticalAlign=middle;whiteSpace=wrap;rounded=0;" parent="mhC85ykQoHwD0zVejbFD-1" vertex="1">
          <mxGeometry x="610" y="545" width="60" height="15" as="geometry" />
        </mxCell>
        <mxCell id="VdU0sh2syNWpK1fHR1R4-0" value="*ovaj page vide samo pacijenti*" style="text;strokeColor=none;fillColor=none;html=1;fontSize=24;fontStyle=1;verticalAlign=middle;align=center;" vertex="1" parent="mhC85ykQoHwD0zVejbFD-1">
          <mxGeometry x="370" y="20" width="420" height="40" as="geometry" />
        </mxCell>
      </root>
    </mxGraphModel>
  </diagram>
  <diagram name="Page 5" id="LdE3pn-Hc9pRybI_M8M3">
    <mxGraphModel dx="1434" dy="758" grid="1" gridSize="10" guides="1" tooltips="1" connect="1" arrows="1" fold="1" page="1" pageScale="1" pageWidth="1100" pageHeight="850" background="#ffffff" math="0" shadow="0">
      <root>
        <mxCell id="ih7M5wc_-FO6ItcmYT_U-0" />
        <mxCell id="ih7M5wc_-FO6ItcmYT_U-1" parent="ih7M5wc_-FO6ItcmYT_U-0" />
        <mxCell id="ih7M5wc_-FO6ItcmYT_U-2" value="" style="strokeWidth=1;shadow=0;dashed=0;align=center;html=1;shape=mxgraph.mockup.containers.browserWindow;rSize=0;strokeColor=#666666;mainText=,;recursiveResize=0;rounded=0;labelBackgroundColor=none;fontFamily=Verdana;fontSize=12;container=0;" parent="ih7M5wc_-FO6ItcmYT_U-1" vertex="1">
          <mxGeometry x="25" y="15" width="1050" height="820" as="geometry" />
        </mxCell>
        <mxCell id="ih7M5wc_-FO6ItcmYT_U-3" value="Page 5" style="strokeWidth=1;shadow=0;dashed=0;align=center;html=1;shape=mxgraph.mockup.containers.anchor;fontSize=17;fontColor=#666666;align=left;" parent="ih7M5wc_-FO6ItcmYT_U-1" vertex="1">
          <mxGeometry x="85" y="27" width="110" height="26" as="geometry" />
        </mxCell>
        <mxCell id="ih7M5wc_-FO6ItcmYT_U-4" value="https://www.default.com" style="strokeWidth=1;shadow=0;dashed=0;align=center;html=1;shape=mxgraph.mockup.containers.anchor;rSize=0;fontSize=17;fontColor=#666666;align=left;" parent="ih7M5wc_-FO6ItcmYT_U-1" vertex="1">
          <mxGeometry x="155" y="75" width="250" height="26" as="geometry" />
        </mxCell>
        <mxCell id="fv4hewloLM948KdImx5Z-0" value="&lt;font style=&quot;font-size: 30px;&quot;&gt;Svi pacijenti&lt;/font&gt;" style="text;strokeColor=none;fillColor=none;html=1;fontSize=24;fontStyle=1;verticalAlign=middle;align=center;" parent="ih7M5wc_-FO6ItcmYT_U-1" vertex="1">
          <mxGeometry x="110" y="160" width="220" height="40" as="geometry" />
        </mxCell>
        <mxCell id="fv4hewloLM948KdImx5Z-2" value="" style="endArrow=none;html=1;rounded=0;" parent="ih7M5wc_-FO6ItcmYT_U-1" edge="1" source="QWgugfnP1xGuhPPOvMJ7-0">
          <mxGeometry width="50" height="50" relative="1" as="geometry">
            <mxPoint x="1050" y="200" as="sourcePoint" />
            <mxPoint x="70" y="200" as="targetPoint" />
          </mxGeometry>
        </mxCell>
        <mxCell id="fv4hewloLM948KdImx5Z-93" value="" style="shape=table;startSize=0;container=1;collapsible=0;childLayout=tableLayout;" parent="ih7M5wc_-FO6ItcmYT_U-1" vertex="1">
          <mxGeometry x="120" y="250" width="890" height="240" as="geometry" />
        </mxCell>
        <mxCell id="fv4hewloLM948KdImx5Z-94" value="" style="shape=tableRow;horizontal=0;startSize=0;swimlaneHead=0;swimlaneBody=0;strokeColor=inherit;top=0;left=0;bottom=0;right=0;collapsible=0;dropTarget=0;fillColor=none;points=[[0,0.5],[1,0.5]];portConstraint=eastwest;" parent="fv4hewloLM948KdImx5Z-93" vertex="1">
          <mxGeometry width="890" height="40" as="geometry" />
        </mxCell>
        <mxCell id="fv4hewloLM948KdImx5Z-95" value="Ime i prezime" style="shape=partialRectangle;html=1;whiteSpace=wrap;connectable=0;strokeColor=#9673a6;overflow=hidden;fillColor=#e1d5e7;top=0;left=0;bottom=0;right=0;pointerEvents=1;" parent="fv4hewloLM948KdImx5Z-94" vertex="1">
          <mxGeometry width="223" height="40" as="geometry">
            <mxRectangle width="223" height="40" as="alternateBounds" />
          </mxGeometry>
        </mxCell>
        <mxCell id="fv4hewloLM948KdImx5Z-96" value="MBO" style="shape=partialRectangle;html=1;whiteSpace=wrap;connectable=0;strokeColor=#9673a6;overflow=hidden;fillColor=#e1d5e7;top=0;left=0;bottom=0;right=0;pointerEvents=1;" parent="fv4hewloLM948KdImx5Z-94" vertex="1">
          <mxGeometry x="223" width="222" height="40" as="geometry">
            <mxRectangle width="222" height="40" as="alternateBounds" />
          </mxGeometry>
        </mxCell>
        <mxCell id="fv4hewloLM948KdImx5Z-97" value="Broj telefona" style="shape=partialRectangle;html=1;whiteSpace=wrap;connectable=0;strokeColor=#9673a6;overflow=hidden;fillColor=#e1d5e7;top=0;left=0;bottom=0;right=0;pointerEvents=1;" parent="fv4hewloLM948KdImx5Z-94" vertex="1">
          <mxGeometry x="445" width="223" height="40" as="geometry">
            <mxRectangle width="223" height="40" as="alternateBounds" />
          </mxGeometry>
        </mxCell>
        <mxCell id="fv4hewloLM948KdImx5Z-98" value="Akcije" style="shape=partialRectangle;html=1;whiteSpace=wrap;connectable=0;strokeColor=#9673a6;overflow=hidden;fillColor=#e1d5e7;top=0;left=0;bottom=0;right=0;pointerEvents=1;" parent="fv4hewloLM948KdImx5Z-94" vertex="1">
          <mxGeometry x="668" width="222" height="40" as="geometry">
            <mxRectangle width="222" height="40" as="alternateBounds" />
          </mxGeometry>
        </mxCell>
        <mxCell id="fv4hewloLM948KdImx5Z-99" value="" style="shape=tableRow;horizontal=0;startSize=0;swimlaneHead=0;swimlaneBody=0;strokeColor=inherit;top=0;left=0;bottom=0;right=0;collapsible=0;dropTarget=0;fillColor=none;points=[[0,0.5],[1,0.5]];portConstraint=eastwest;" parent="fv4hewloLM948KdImx5Z-93" vertex="1">
          <mxGeometry y="40" width="890" height="50" as="geometry" />
        </mxCell>
        <mxCell id="fv4hewloLM948KdImx5Z-100" value="Miljenko Krhen" style="shape=partialRectangle;html=1;whiteSpace=wrap;connectable=0;strokeColor=inherit;overflow=hidden;fillColor=none;top=0;left=0;bottom=0;right=0;pointerEvents=1;" parent="fv4hewloLM948KdImx5Z-99" vertex="1">
          <mxGeometry width="223" height="50" as="geometry">
            <mxRectangle width="223" height="50" as="alternateBounds" />
          </mxGeometry>
        </mxCell>
        <mxCell id="fv4hewloLM948KdImx5Z-101" value="25625462572457" style="shape=partialRectangle;html=1;whiteSpace=wrap;connectable=0;strokeColor=inherit;overflow=hidden;fillColor=none;top=0;left=0;bottom=0;right=0;pointerEvents=1;" parent="fv4hewloLM948KdImx5Z-99" vertex="1">
          <mxGeometry x="223" width="222" height="50" as="geometry">
            <mxRectangle width="222" height="50" as="alternateBounds" />
          </mxGeometry>
        </mxCell>
        <mxCell id="fv4hewloLM948KdImx5Z-102" value="099 1234567" style="shape=partialRectangle;html=1;whiteSpace=wrap;connectable=0;strokeColor=inherit;overflow=hidden;fillColor=none;top=0;left=0;bottom=0;right=0;pointerEvents=1;" parent="fv4hewloLM948KdImx5Z-99" vertex="1">
          <mxGeometry x="445" width="223" height="50" as="geometry">
            <mxRectangle width="223" height="50" as="alternateBounds" />
          </mxGeometry>
        </mxCell>
        <mxCell id="fv4hewloLM948KdImx5Z-103" value="" style="shape=partialRectangle;html=1;whiteSpace=wrap;connectable=0;strokeColor=inherit;overflow=hidden;fillColor=none;top=0;left=0;bottom=0;right=0;pointerEvents=1;" parent="fv4hewloLM948KdImx5Z-99" vertex="1">
          <mxGeometry x="668" width="222" height="50" as="geometry">
            <mxRectangle width="222" height="50" as="alternateBounds" />
          </mxGeometry>
        </mxCell>
        <mxCell id="fv4hewloLM948KdImx5Z-104" value="" style="shape=tableRow;horizontal=0;startSize=0;swimlaneHead=0;swimlaneBody=0;strokeColor=inherit;top=0;left=0;bottom=0;right=0;collapsible=0;dropTarget=0;fillColor=none;points=[[0,0.5],[1,0.5]];portConstraint=eastwest;" parent="fv4hewloLM948KdImx5Z-93" vertex="1">
          <mxGeometry y="90" width="890" height="50" as="geometry" />
        </mxCell>
        <mxCell id="fv4hewloLM948KdImx5Z-105" value="Vlado Sruk" style="shape=partialRectangle;html=1;whiteSpace=wrap;connectable=0;strokeColor=inherit;overflow=hidden;fillColor=none;top=0;left=0;bottom=0;right=0;pointerEvents=1;" parent="fv4hewloLM948KdImx5Z-104" vertex="1">
          <mxGeometry width="223" height="50" as="geometry">
            <mxRectangle width="223" height="50" as="alternateBounds" />
          </mxGeometry>
        </mxCell>
        <mxCell id="fv4hewloLM948KdImx5Z-106" value="546257256256546" style="shape=partialRectangle;html=1;whiteSpace=wrap;connectable=0;strokeColor=inherit;overflow=hidden;fillColor=none;top=0;left=0;bottom=0;right=0;pointerEvents=1;" parent="fv4hewloLM948KdImx5Z-104" vertex="1">
          <mxGeometry x="223" width="222" height="50" as="geometry">
            <mxRectangle width="222" height="50" as="alternateBounds" />
          </mxGeometry>
        </mxCell>
        <mxCell id="fv4hewloLM948KdImx5Z-107" value="..." style="shape=partialRectangle;html=1;whiteSpace=wrap;connectable=0;strokeColor=inherit;overflow=hidden;fillColor=none;top=0;left=0;bottom=0;right=0;pointerEvents=1;" parent="fv4hewloLM948KdImx5Z-104" vertex="1">
          <mxGeometry x="445" width="223" height="50" as="geometry">
            <mxRectangle width="223" height="50" as="alternateBounds" />
          </mxGeometry>
        </mxCell>
        <mxCell id="fv4hewloLM948KdImx5Z-108" value="" style="shape=partialRectangle;html=1;whiteSpace=wrap;connectable=0;strokeColor=inherit;overflow=hidden;fillColor=none;top=0;left=0;bottom=0;right=0;pointerEvents=1;" parent="fv4hewloLM948KdImx5Z-104" vertex="1">
          <mxGeometry x="668" width="222" height="50" as="geometry">
            <mxRectangle width="222" height="50" as="alternateBounds" />
          </mxGeometry>
        </mxCell>
        <mxCell id="fv4hewloLM948KdImx5Z-109" value="" style="shape=tableRow;horizontal=0;startSize=0;swimlaneHead=0;swimlaneBody=0;strokeColor=inherit;top=0;left=0;bottom=0;right=0;collapsible=0;dropTarget=0;fillColor=none;points=[[0,0.5],[1,0.5]];portConstraint=eastwest;" parent="fv4hewloLM948KdImx5Z-93" vertex="1">
          <mxGeometry y="140" width="890" height="50" as="geometry" />
        </mxCell>
        <mxCell id="fv4hewloLM948KdImx5Z-110" value="Alan Jović" style="shape=partialRectangle;html=1;whiteSpace=wrap;connectable=0;strokeColor=inherit;overflow=hidden;fillColor=none;top=0;left=0;bottom=0;right=0;pointerEvents=1;" parent="fv4hewloLM948KdImx5Z-109" vertex="1">
          <mxGeometry width="223" height="50" as="geometry">
            <mxRectangle width="223" height="50" as="alternateBounds" />
          </mxGeometry>
        </mxCell>
        <mxCell id="fv4hewloLM948KdImx5Z-111" value="2565625625462456" style="shape=partialRectangle;html=1;whiteSpace=wrap;connectable=0;strokeColor=inherit;overflow=hidden;fillColor=none;top=0;left=0;bottom=0;right=0;pointerEvents=1;" parent="fv4hewloLM948KdImx5Z-109" vertex="1">
          <mxGeometry x="223" width="222" height="50" as="geometry">
            <mxRectangle width="222" height="50" as="alternateBounds" />
          </mxGeometry>
        </mxCell>
        <mxCell id="fv4hewloLM948KdImx5Z-112" value="..." style="shape=partialRectangle;html=1;whiteSpace=wrap;connectable=0;strokeColor=inherit;overflow=hidden;fillColor=none;top=0;left=0;bottom=0;right=0;pointerEvents=1;" parent="fv4hewloLM948KdImx5Z-109" vertex="1">
          <mxGeometry x="445" width="223" height="50" as="geometry">
            <mxRectangle width="223" height="50" as="alternateBounds" />
          </mxGeometry>
        </mxCell>
        <mxCell id="fv4hewloLM948KdImx5Z-113" value="" style="shape=partialRectangle;html=1;whiteSpace=wrap;connectable=0;strokeColor=inherit;overflow=hidden;fillColor=none;top=0;left=0;bottom=0;right=0;pointerEvents=1;" parent="fv4hewloLM948KdImx5Z-109" vertex="1">
          <mxGeometry x="668" width="222" height="50" as="geometry">
            <mxRectangle width="222" height="50" as="alternateBounds" />
          </mxGeometry>
        </mxCell>
        <mxCell id="fv4hewloLM948KdImx5Z-114" value="" style="shape=tableRow;horizontal=0;startSize=0;swimlaneHead=0;swimlaneBody=0;strokeColor=inherit;top=0;left=0;bottom=0;right=0;collapsible=0;dropTarget=0;fillColor=none;points=[[0,0.5],[1,0.5]];portConstraint=eastwest;" parent="fv4hewloLM948KdImx5Z-93" vertex="1">
          <mxGeometry y="190" width="890" height="50" as="geometry" />
        </mxCell>
        <mxCell id="fv4hewloLM948KdImx5Z-115" value="itd." style="shape=partialRectangle;html=1;whiteSpace=wrap;connectable=0;strokeColor=inherit;overflow=hidden;fillColor=none;top=0;left=0;bottom=0;right=0;pointerEvents=1;" parent="fv4hewloLM948KdImx5Z-114" vertex="1">
          <mxGeometry width="223" height="50" as="geometry">
            <mxRectangle width="223" height="50" as="alternateBounds" />
          </mxGeometry>
        </mxCell>
        <mxCell id="fv4hewloLM948KdImx5Z-116" value="123123123123123" style="shape=partialRectangle;html=1;whiteSpace=wrap;connectable=0;strokeColor=inherit;overflow=hidden;fillColor=none;top=0;left=0;bottom=0;right=0;pointerEvents=1;" parent="fv4hewloLM948KdImx5Z-114" vertex="1">
          <mxGeometry x="223" width="222" height="50" as="geometry">
            <mxRectangle width="222" height="50" as="alternateBounds" />
          </mxGeometry>
        </mxCell>
        <mxCell id="fv4hewloLM948KdImx5Z-117" value="..." style="shape=partialRectangle;html=1;whiteSpace=wrap;connectable=0;strokeColor=inherit;overflow=hidden;fillColor=none;top=0;left=0;bottom=0;right=0;pointerEvents=1;" parent="fv4hewloLM948KdImx5Z-114" vertex="1">
          <mxGeometry x="445" width="223" height="50" as="geometry">
            <mxRectangle width="223" height="50" as="alternateBounds" />
          </mxGeometry>
        </mxCell>
        <mxCell id="fv4hewloLM948KdImx5Z-118" value="" style="shape=partialRectangle;html=1;whiteSpace=wrap;connectable=0;strokeColor=inherit;overflow=hidden;fillColor=none;top=0;left=0;bottom=0;right=0;pointerEvents=1;" parent="fv4hewloLM948KdImx5Z-114" vertex="1">
          <mxGeometry x="668" width="222" height="50" as="geometry">
            <mxRectangle width="222" height="50" as="alternateBounds" />
          </mxGeometry>
        </mxCell>
        <mxCell id="fv4hewloLM948KdImx5Z-119" value="Prikaži terapije" style="rounded=1;fillColor=#6a00ff;strokeColor=#3700CC;html=1;whiteSpace=wrap;fontColor=#ffffff;align=center;verticalAlign=middle;fontStyle=0;fontSize=12;sketch=0;" parent="ih7M5wc_-FO6ItcmYT_U-1" vertex="1">
          <mxGeometry x="830" y="300" width="160" height="33" as="geometry" />
        </mxCell>
        <mxCell id="fv4hewloLM948KdImx5Z-121" value="" style="shape=mxgraph.arrows.arrow_right;html=1;verticalLabelPosition=bottom;verticalAlign=top;strokeWidth=2;strokeColor=#000000;" parent="ih7M5wc_-FO6ItcmYT_U-1" vertex="1">
          <mxGeometry x="960" y="307.75" width="20" height="20" as="geometry" />
        </mxCell>
        <mxCell id="fv4hewloLM948KdImx5Z-122" value="Prikaži terapije" style="rounded=1;fillColor=#6a00ff;strokeColor=#3700CC;html=1;whiteSpace=wrap;fontColor=#ffffff;align=center;verticalAlign=middle;fontStyle=0;fontSize=12;sketch=0;" parent="ih7M5wc_-FO6ItcmYT_U-1" vertex="1">
          <mxGeometry x="830" y="450" width="160" height="33" as="geometry" />
        </mxCell>
        <mxCell id="fv4hewloLM948KdImx5Z-123" value="" style="shape=mxgraph.arrows.arrow_right;html=1;verticalLabelPosition=bottom;verticalAlign=top;strokeWidth=2;strokeColor=#000000;" parent="ih7M5wc_-FO6ItcmYT_U-1" vertex="1">
          <mxGeometry x="960" y="357.75" width="20" height="20" as="geometry" />
        </mxCell>
        <mxCell id="fv4hewloLM948KdImx5Z-124" value="Prikaži terapije" style="rounded=1;fillColor=#6a00ff;strokeColor=#3700CC;html=1;whiteSpace=wrap;fontColor=#ffffff;align=center;verticalAlign=middle;fontStyle=0;fontSize=12;sketch=0;" parent="ih7M5wc_-FO6ItcmYT_U-1" vertex="1">
          <mxGeometry x="830" y="400" width="160" height="33" as="geometry" />
        </mxCell>
        <mxCell id="fv4hewloLM948KdImx5Z-125" value="" style="shape=mxgraph.arrows.arrow_right;html=1;verticalLabelPosition=bottom;verticalAlign=top;strokeWidth=2;strokeColor=#000000;" parent="ih7M5wc_-FO6ItcmYT_U-1" vertex="1">
          <mxGeometry x="960" y="407.75" width="20" height="20" as="geometry" />
        </mxCell>
        <mxCell id="fv4hewloLM948KdImx5Z-126" value="Prikaži terapije" style="rounded=1;fillColor=#6a00ff;strokeColor=#3700CC;html=1;whiteSpace=wrap;fontColor=#ffffff;align=center;verticalAlign=middle;fontStyle=0;fontSize=12;sketch=0;" parent="ih7M5wc_-FO6ItcmYT_U-1" vertex="1">
          <mxGeometry x="830" y="351.25" width="160" height="33" as="geometry" />
        </mxCell>
        <mxCell id="fv4hewloLM948KdImx5Z-127" value="" style="shape=mxgraph.arrows.arrow_right;html=1;verticalLabelPosition=bottom;verticalAlign=top;strokeWidth=2;strokeColor=#000000;" parent="ih7M5wc_-FO6ItcmYT_U-1" vertex="1">
          <mxGeometry x="960" y="359" width="20" height="20" as="geometry" />
        </mxCell>
        <mxCell id="fv4hewloLM948KdImx5Z-128" value="" style="shape=mxgraph.arrows.arrow_right;html=1;verticalLabelPosition=bottom;verticalAlign=top;strokeWidth=2;strokeColor=#000000;" parent="ih7M5wc_-FO6ItcmYT_U-1" vertex="1">
          <mxGeometry x="960" y="456.5" width="20" height="20" as="geometry" />
        </mxCell>
        <mxCell id="BSVUspXrp9-Y9YwAZqrV-0" value="*ovaj page vide djelatnici i admini*" style="text;strokeColor=none;fillColor=none;html=1;fontSize=24;fontStyle=1;verticalAlign=middle;align=center;" vertex="1" parent="ih7M5wc_-FO6ItcmYT_U-1">
          <mxGeometry x="370" y="20" width="420" height="40" as="geometry" />
        </mxCell>
        <mxCell id="QWgugfnP1xGuhPPOvMJ7-1" value="" style="endArrow=none;html=1;rounded=0;" edge="1" parent="ih7M5wc_-FO6ItcmYT_U-1" target="QWgugfnP1xGuhPPOvMJ7-0">
          <mxGeometry width="50" height="50" relative="1" as="geometry">
            <mxPoint x="1050" y="200" as="sourcePoint" />
            <mxPoint x="70" y="200" as="targetPoint" />
          </mxGeometry>
        </mxCell>
        <mxCell id="QWgugfnP1xGuhPPOvMJ7-0" value="KLIK VODI NA PAGE 6&amp;nbsp;" style="shape=callout;whiteSpace=wrap;html=1;perimeter=calloutPerimeter;size=80;position=0.5;" vertex="1" parent="ih7M5wc_-FO6ItcmYT_U-1">
          <mxGeometry x="830" y="160" width="200" height="160" as="geometry" />
        </mxCell>
      </root>
    </mxGraphModel>
  </diagram>
  <diagram name="Page 6" id="6fx5B2PzUBwHupzUEezo">
    <mxGraphModel dx="1434" dy="758" grid="1" gridSize="10" guides="1" tooltips="1" connect="1" arrows="1" fold="1" page="1" pageScale="1" pageWidth="1100" pageHeight="850" background="#ffffff" math="0" shadow="0">
      <root>
        <mxCell id="2h3BrQDgFf5ML3vc2qCb-0" />
        <mxCell id="2h3BrQDgFf5ML3vc2qCb-1" parent="2h3BrQDgFf5ML3vc2qCb-0" />
        <mxCell id="2h3BrQDgFf5ML3vc2qCb-2" value="" style="strokeWidth=1;shadow=0;dashed=0;align=center;html=1;shape=mxgraph.mockup.containers.browserWindow;rSize=0;strokeColor=#666666;mainText=,;recursiveResize=0;rounded=0;labelBackgroundColor=none;fontFamily=Verdana;fontSize=12;container=0;" parent="2h3BrQDgFf5ML3vc2qCb-1" vertex="1">
          <mxGeometry x="25" y="15" width="1050" height="820" as="geometry" />
        </mxCell>
        <mxCell id="2h3BrQDgFf5ML3vc2qCb-3" value="Page 6" style="strokeWidth=1;shadow=0;dashed=0;align=center;html=1;shape=mxgraph.mockup.containers.anchor;fontSize=17;fontColor=#666666;align=left;" parent="2h3BrQDgFf5ML3vc2qCb-1" vertex="1">
          <mxGeometry x="85" y="27" width="110" height="26" as="geometry" />
        </mxCell>
        <mxCell id="2h3BrQDgFf5ML3vc2qCb-4" value="https://www.default.com" style="strokeWidth=1;shadow=0;dashed=0;align=center;html=1;shape=mxgraph.mockup.containers.anchor;rSize=0;fontSize=17;fontColor=#666666;align=left;" parent="2h3BrQDgFf5ML3vc2qCb-1" vertex="1">
          <mxGeometry x="155" y="75" width="250" height="26" as="geometry" />
        </mxCell>
        <mxCell id="fP66vJA8NRDYzRfapNjH-0" value="Pacijent Miroslav Mirić - terapije" style="text;strokeColor=none;fillColor=none;html=1;fontSize=24;fontStyle=1;verticalAlign=middle;align=center;" vertex="1" parent="2h3BrQDgFf5ML3vc2qCb-1">
          <mxGeometry x="110" y="160" width="410" height="70" as="geometry" />
        </mxCell>
        <mxCell id="eBFI_-zm41f3LEwWYPWR-0" value="Datum i vrijeme" style="connectable=0;recursiveResize=0;strokeColor=inherit;fillColor=#98A2B0;align=center;fontStyle=1;fontColor=#FFFFFF;html=1;" vertex="1" parent="2h3BrQDgFf5ML3vc2qCb-1">
          <mxGeometry x="130" y="265" width="240" height="45" as="geometry">
            <mxRectangle width="240" height="45" as="alternateBounds" />
          </mxGeometry>
        </mxCell>
        <mxCell id="eBFI_-zm41f3LEwWYPWR-1" value="Terapija, doktor, itd. (ovo podijeliti na više stupaca)" style="connectable=0;recursiveResize=0;strokeColor=inherit;fillColor=#98A2B0;align=center;fontStyle=1;fontColor=#FFFFFF;html=1;" vertex="1" parent="2h3BrQDgFf5ML3vc2qCb-1">
          <mxGeometry x="370" y="265" width="320" height="45" as="geometry">
            <mxRectangle width="370" height="45" as="alternateBounds" />
          </mxGeometry>
        </mxCell>
        <mxCell id="eBFI_-zm41f3LEwWYPWR-2" value="Status" style="connectable=0;recursiveResize=0;strokeColor=inherit;fillColor=#98A2B0;align=center;fontStyle=1;fontColor=#FFFFFF;html=1;" vertex="1" parent="2h3BrQDgFf5ML3vc2qCb-1">
          <mxGeometry x="690" y="265" width="210" height="45" as="geometry">
            <mxRectangle width="250" height="45" as="alternateBounds" />
          </mxGeometry>
        </mxCell>
        <mxCell id="eBFI_-zm41f3LEwWYPWR-3" value="30.3.2024. u 9:00" style="connectable=0;recursiveResize=0;strokeColor=inherit;fillColor=inherit;align=center;whiteSpace=wrap;html=1;" vertex="1" parent="2h3BrQDgFf5ML3vc2qCb-1">
          <mxGeometry x="130" y="310" width="240" height="79" as="geometry">
            <mxRectangle width="240" height="79" as="alternateBounds" />
          </mxGeometry>
        </mxCell>
        <mxCell id="eBFI_-zm41f3LEwWYPWR-4" value="Terapija za tendinitis, dr. Tomislav Šarić, 1. dolazak, ..." style="connectable=0;recursiveResize=0;strokeColor=inherit;fillColor=inherit;align=center;whiteSpace=wrap;html=1;" vertex="1" parent="2h3BrQDgFf5ML3vc2qCb-1">
          <mxGeometry x="370" y="310" width="320" height="79" as="geometry">
            <mxRectangle width="370" height="79" as="alternateBounds" />
          </mxGeometry>
        </mxCell>
        <mxCell id="eBFI_-zm41f3LEwWYPWR-5" value="ČEKA NA ODOBRENJE&lt;br&gt;&lt;br&gt;" style="connectable=0;recursiveResize=0;strokeColor=inherit;fillColor=inherit;align=center;whiteSpace=wrap;html=1;" vertex="1" parent="2h3BrQDgFf5ML3vc2qCb-1">
          <mxGeometry x="690" y="310" width="210" height="79" as="geometry">
            <mxRectangle width="250" height="79" as="alternateBounds" />
          </mxGeometry>
        </mxCell>
        <mxCell id="eBFI_-zm41f3LEwWYPWR-6" value="16.12.2023. u 14:00" style="connectable=0;recursiveResize=0;strokeColor=#36393d;fillColor=#eeeeee;whiteSpace=wrap;html=1;" vertex="1" parent="2h3BrQDgFf5ML3vc2qCb-1">
          <mxGeometry x="130" y="389" width="240" height="77" as="geometry">
            <mxRectangle width="240" height="77" as="alternateBounds" />
          </mxGeometry>
        </mxCell>
        <mxCell id="eBFI_-zm41f3LEwWYPWR-7" value="..." style="connectable=0;recursiveResize=0;strokeColor=#36393d;fillColor=#eeeeee;whiteSpace=wrap;html=1;" vertex="1" parent="2h3BrQDgFf5ML3vc2qCb-1">
          <mxGeometry x="370" y="389" width="320" height="77" as="geometry">
            <mxRectangle width="370" height="77" as="alternateBounds" />
          </mxGeometry>
        </mxCell>
        <mxCell id="eBFI_-zm41f3LEwWYPWR-8" value="ODOBRENO" style="connectable=0;recursiveResize=0;strokeColor=#36393d;fillColor=#eeeeee;whiteSpace=wrap;html=1;" vertex="1" parent="2h3BrQDgFf5ML3vc2qCb-1">
          <mxGeometry x="690" y="389" width="210" height="77" as="geometry">
            <mxRectangle width="250" height="77" as="alternateBounds" />
          </mxGeometry>
        </mxCell>
        <mxCell id="eBFI_-zm41f3LEwWYPWR-9" value="12.4.2014. u 11:00" style="connectable=0;recursiveResize=0;strokeColor=inherit;fillColor=inherit;fontStyle=0;align=center;whiteSpace=wrap;html=1;" vertex="1" parent="2h3BrQDgFf5ML3vc2qCb-1">
          <mxGeometry x="130" y="466" width="240" height="81" as="geometry">
            <mxRectangle width="240" height="81" as="alternateBounds" />
          </mxGeometry>
        </mxCell>
        <mxCell id="eBFI_-zm41f3LEwWYPWR-10" value="..." style="connectable=0;recursiveResize=0;strokeColor=inherit;fillColor=inherit;fontStyle=0;align=center;whiteSpace=wrap;html=1;" vertex="1" parent="2h3BrQDgFf5ML3vc2qCb-1">
          <mxGeometry x="370" y="466" width="320" height="81" as="geometry">
            <mxRectangle width="370" height="81" as="alternateBounds" />
          </mxGeometry>
        </mxCell>
        <mxCell id="eBFI_-zm41f3LEwWYPWR-11" value="OBAVLJENO" style="connectable=0;recursiveResize=0;strokeColor=inherit;fillColor=inherit;fontStyle=0;align=center;whiteSpace=wrap;html=1;" vertex="1" parent="2h3BrQDgFf5ML3vc2qCb-1">
          <mxGeometry x="690" y="466" width="210" height="81" as="geometry">
            <mxRectangle width="250" height="81" as="alternateBounds" />
          </mxGeometry>
        </mxCell>
        <mxCell id="eBFI_-zm41f3LEwWYPWR-12" value="1.3.2008. u 12:00" style="connectable=0;recursiveResize=0;strokeColor=#36393d;fillColor=#eeeeee;whiteSpace=wrap;html=1;" vertex="1" parent="2h3BrQDgFf5ML3vc2qCb-1">
          <mxGeometry x="130" y="547" width="240" height="77" as="geometry">
            <mxRectangle width="240" height="77" as="alternateBounds" />
          </mxGeometry>
        </mxCell>
        <mxCell id="eBFI_-zm41f3LEwWYPWR-13" value="..." style="connectable=0;recursiveResize=0;strokeColor=#36393d;fillColor=#eeeeee;whiteSpace=wrap;html=1;" vertex="1" parent="2h3BrQDgFf5ML3vc2qCb-1">
          <mxGeometry x="370" y="547" width="320" height="77" as="geometry">
            <mxRectangle width="370" height="77" as="alternateBounds" />
          </mxGeometry>
        </mxCell>
        <mxCell id="eBFI_-zm41f3LEwWYPWR-14" value="ISTEKLO - PROPUŠTEN DOLAZAK" style="connectable=0;recursiveResize=0;strokeColor=#36393d;fillColor=#eeeeee;whiteSpace=wrap;html=1;" vertex="1" parent="2h3BrQDgFf5ML3vc2qCb-1">
          <mxGeometry x="690" y="547" width="210" height="77" as="geometry">
            <mxRectangle width="250" height="77" as="alternateBounds" />
          </mxGeometry>
        </mxCell>
        <mxCell id="eBFI_-zm41f3LEwWYPWR-15" value="&lt;p style=&quot;line-height: 100%;&quot;&gt;&lt;font style=&quot;font-size: 10px;&quot;&gt;&lt;b&gt;PRIHVATI&lt;/b&gt;&lt;/font&gt;&lt;/p&gt;" style="html=1;shadow=0;dashed=0;shape=mxgraph.bootstrap.rrect;rSize=5;strokeColor=none;strokeWidth=1;fillColor=#33A64C;fontColor=#FFFFFF;whiteSpace=wrap;align=center;verticalAlign=middle;spacingLeft=0;fontStyle=0;fontSize=16;spacing=5;" vertex="1" parent="2h3BrQDgFf5ML3vc2qCb-1">
          <mxGeometry x="800" y="353" width="80" height="29" as="geometry" />
        </mxCell>
        <mxCell id="eBFI_-zm41f3LEwWYPWR-16" value="&lt;p style=&quot;line-height: 100%;&quot;&gt;&lt;font style=&quot;font-size: 10px;&quot;&gt;&lt;b&gt;ODBIJ&lt;/b&gt;&lt;/font&gt;&lt;/p&gt;" style="html=1;shadow=0;dashed=0;shape=mxgraph.bootstrap.rrect;rSize=5;strokeColor=none;strokeWidth=1;fillColor=#DB2843;fontColor=#FFFFFF;whiteSpace=wrap;align=center;verticalAlign=middle;spacingLeft=0;fontStyle=0;fontSize=16;spacing=5;" vertex="1" parent="2h3BrQDgFf5ML3vc2qCb-1">
          <mxGeometry x="710" y="353" width="70" height="29" as="geometry" />
        </mxCell>
        <mxCell id="xz6XrgaIBOTeuxvaZMJB-0" value="Akcija" style="connectable=0;recursiveResize=0;strokeColor=inherit;fillColor=#98A2B0;align=center;fontStyle=1;fontColor=#FFFFFF;html=1;" vertex="1" parent="2h3BrQDgFf5ML3vc2qCb-1">
          <mxGeometry x="900" y="265" width="120" height="45" as="geometry">
            <mxRectangle width="250" height="45" as="alternateBounds" />
          </mxGeometry>
        </mxCell>
        <mxCell id="xz6XrgaIBOTeuxvaZMJB-1" value="" style="connectable=0;recursiveResize=0;strokeColor=inherit;fillColor=inherit;align=center;whiteSpace=wrap;html=1;" vertex="1" parent="2h3BrQDgFf5ML3vc2qCb-1">
          <mxGeometry x="900" y="310" width="120" height="79" as="geometry">
            <mxRectangle width="250" height="79" as="alternateBounds" />
          </mxGeometry>
        </mxCell>
        <mxCell id="xz6XrgaIBOTeuxvaZMJB-2" value="" style="connectable=0;recursiveResize=0;strokeColor=#36393d;fillColor=#eeeeee;whiteSpace=wrap;html=1;" vertex="1" parent="2h3BrQDgFf5ML3vc2qCb-1">
          <mxGeometry x="900" y="389" width="120" height="77" as="geometry">
            <mxRectangle width="250" height="77" as="alternateBounds" />
          </mxGeometry>
        </mxCell>
        <mxCell id="xz6XrgaIBOTeuxvaZMJB-3" value="" style="connectable=0;recursiveResize=0;strokeColor=inherit;fillColor=inherit;align=center;whiteSpace=wrap;html=1;" vertex="1" parent="2h3BrQDgFf5ML3vc2qCb-1">
          <mxGeometry x="900" y="466" width="120" height="84" as="geometry">
            <mxRectangle width="250" height="79" as="alternateBounds" />
          </mxGeometry>
        </mxCell>
        <mxCell id="xz6XrgaIBOTeuxvaZMJB-4" value="" style="connectable=0;recursiveResize=0;strokeColor=#36393d;fillColor=#eeeeee;whiteSpace=wrap;html=1;" vertex="1" parent="2h3BrQDgFf5ML3vc2qCb-1">
          <mxGeometry x="900" y="547" width="120" height="77" as="geometry">
            <mxRectangle width="250" height="77" as="alternateBounds" />
          </mxGeometry>
        </mxCell>
        <mxCell id="c4-YN_1g4WMvwahvDFjs-0" value="EVIDENTIRAJ" style="rounded=1;fillColor=#6a00ff;strokeColor=#3700CC;html=1;whiteSpace=wrap;fontColor=#ffffff;align=center;verticalAlign=middle;fontStyle=0;fontSize=12;sketch=0;" vertex="1" parent="2h3BrQDgFf5ML3vc2qCb-1">
          <mxGeometry x="910" y="333" width="100" height="33" as="geometry" />
        </mxCell>
        <mxCell id="c4-YN_1g4WMvwahvDFjs-1" value="EVIDENTIRAJ" style="rounded=1;fillColor=#6a00ff;strokeColor=#3700CC;html=1;whiteSpace=wrap;fontColor=#ffffff;align=center;verticalAlign=middle;fontStyle=0;fontSize=12;sketch=0;" vertex="1" parent="2h3BrQDgFf5ML3vc2qCb-1">
          <mxGeometry x="910" y="409" width="100" height="33" as="geometry" />
        </mxCell>
        <mxCell id="c4-YN_1g4WMvwahvDFjs-2" value="PRIKAŽI EVIDENCIJU" style="rounded=1;fillColor=#76608a;strokeColor=#432D57;html=1;whiteSpace=wrap;fontColor=#ffffff;align=center;verticalAlign=middle;fontStyle=0;fontSize=12;sketch=0;" vertex="1" parent="2h3BrQDgFf5ML3vc2qCb-1">
          <mxGeometry x="910" y="510" width="100" height="33" as="geometry" />
        </mxCell>
        <mxCell id="c4-YN_1g4WMvwahvDFjs-4" value="PRIKAŽI EVIDENCIJU" style="rounded=1;fillColor=#76608a;strokeColor=#432D57;html=1;whiteSpace=wrap;fontColor=#ffffff;align=center;verticalAlign=middle;fontStyle=0;fontSize=12;sketch=0;" vertex="1" parent="2h3BrQDgFf5ML3vc2qCb-1">
          <mxGeometry x="910" y="586" width="100" height="33" as="geometry" />
        </mxCell>
        <mxCell id="c4-YN_1g4WMvwahvDFjs-5" value="EVIDENTIRANO" style="text;html=1;strokeColor=none;fillColor=none;align=center;verticalAlign=middle;whiteSpace=wrap;rounded=0;" vertex="1" parent="2h3BrQDgFf5ML3vc2qCb-1">
          <mxGeometry x="910" y="474" width="100" height="30" as="geometry" />
        </mxCell>
        <mxCell id="c4-YN_1g4WMvwahvDFjs-6" value="EVIDENTIRANO" style="text;html=1;strokeColor=none;fillColor=none;align=center;verticalAlign=middle;whiteSpace=wrap;rounded=0;" vertex="1" parent="2h3BrQDgFf5ML3vc2qCb-1">
          <mxGeometry x="910" y="552" width="100" height="30" as="geometry" />
        </mxCell>
        <mxCell id="-83UAeCe6ulmfSboftJs-0" value="*ovaj page vide djelatnici i admini*" style="text;strokeColor=none;fillColor=none;html=1;fontSize=24;fontStyle=1;verticalAlign=middle;align=center;" vertex="1" parent="2h3BrQDgFf5ML3vc2qCb-1">
          <mxGeometry x="370" y="20" width="420" height="40" as="geometry" />
        </mxCell>
        <mxCell id="okns3Jn8qyVnkWUPjvvr-0" value="KLIK VODI NA PAGE 8&amp;nbsp;" style="shape=callout;whiteSpace=wrap;html=1;perimeter=calloutPerimeter;size=80;position=0.5;" vertex="1" parent="2h3BrQDgFf5ML3vc2qCb-1">
          <mxGeometry x="830" y="180" width="200" height="160" as="geometry" />
        </mxCell>
      </root>
    </mxGraphModel>
  </diagram>
  <diagram name="Page 7" id="xHmg3oreCNYPOpRnnmKN">
    <mxGraphModel dx="1434" dy="758" grid="1" gridSize="10" guides="1" tooltips="1" connect="1" arrows="1" fold="1" page="1" pageScale="1" pageWidth="1100" pageHeight="850" background="#ffffff" math="0" shadow="0">
      <root>
        <mxCell id="Xy2jGdK7bTG2j28SyOMI-0" />
        <mxCell id="Xy2jGdK7bTG2j28SyOMI-1" parent="Xy2jGdK7bTG2j28SyOMI-0" />
        <mxCell id="Xy2jGdK7bTG2j28SyOMI-2" value="" style="strokeWidth=1;shadow=0;dashed=0;align=center;html=1;shape=mxgraph.mockup.containers.browserWindow;rSize=0;strokeColor=#666666;mainText=,;recursiveResize=0;rounded=0;labelBackgroundColor=none;fontFamily=Verdana;fontSize=12;container=0;" vertex="1" parent="Xy2jGdK7bTG2j28SyOMI-1">
          <mxGeometry x="25" y="15" width="1050" height="820" as="geometry" />
        </mxCell>
        <mxCell id="Xy2jGdK7bTG2j28SyOMI-3" value="Page 7" style="strokeWidth=1;shadow=0;dashed=0;align=center;html=1;shape=mxgraph.mockup.containers.anchor;fontSize=17;fontColor=#666666;align=left;" vertex="1" parent="Xy2jGdK7bTG2j28SyOMI-1">
          <mxGeometry x="85" y="27" width="110" height="26" as="geometry" />
        </mxCell>
        <mxCell id="Xy2jGdK7bTG2j28SyOMI-4" value="https://www.default.com" style="strokeWidth=1;shadow=0;dashed=0;align=center;html=1;shape=mxgraph.mockup.containers.anchor;rSize=0;fontSize=17;fontColor=#666666;align=left;" vertex="1" parent="Xy2jGdK7bTG2j28SyOMI-1">
          <mxGeometry x="155" y="75" width="250" height="26" as="geometry" />
        </mxCell>
        <mxCell id="Xy2jGdK7bTG2j28SyOMI-5" value="Prijave za terapije na čekanju" style="text;strokeColor=none;fillColor=none;html=1;fontSize=24;fontStyle=1;verticalAlign=middle;align=left;" vertex="1" parent="Xy2jGdK7bTG2j28SyOMI-1">
          <mxGeometry x="130" y="160" width="580" height="70" as="geometry" />
        </mxCell>
        <mxCell id="Xy2jGdK7bTG2j28SyOMI-6" value="Termin" style="connectable=0;recursiveResize=0;strokeColor=inherit;fillColor=#98A2B0;align=center;fontStyle=1;fontColor=#FFFFFF;html=1;" vertex="1" parent="Xy2jGdK7bTG2j28SyOMI-1">
          <mxGeometry x="130" y="265" width="240" height="45" as="geometry">
            <mxRectangle width="240" height="45" as="alternateBounds" />
          </mxGeometry>
        </mxCell>
        <mxCell id="Xy2jGdK7bTG2j28SyOMI-7" value="Ime i prezime pacijenta, vrsta terapije itd. šta još treba" style="connectable=0;recursiveResize=0;strokeColor=inherit;fillColor=#98A2B0;align=center;fontStyle=1;fontColor=#FFFFFF;html=1;" vertex="1" parent="Xy2jGdK7bTG2j28SyOMI-1">
          <mxGeometry x="370" y="265" width="370" height="45" as="geometry">
            <mxRectangle width="370" height="45" as="alternateBounds" />
          </mxGeometry>
        </mxCell>
        <mxCell id="Xy2jGdK7bTG2j28SyOMI-8" value="Status" style="connectable=0;recursiveResize=0;strokeColor=inherit;fillColor=#98A2B0;align=center;fontStyle=1;fontColor=#FFFFFF;html=1;" vertex="1" parent="Xy2jGdK7bTG2j28SyOMI-1">
          <mxGeometry x="740" y="265" width="250" height="45" as="geometry">
            <mxRectangle width="250" height="45" as="alternateBounds" />
          </mxGeometry>
        </mxCell>
        <mxCell id="Xy2jGdK7bTG2j28SyOMI-9" value="30.3.2024. u 9:00" style="connectable=0;recursiveResize=0;strokeColor=inherit;fillColor=inherit;align=center;whiteSpace=wrap;html=1;" vertex="1" parent="Xy2jGdK7bTG2j28SyOMI-1">
          <mxGeometry x="130" y="310" width="240" height="79" as="geometry">
            <mxRectangle width="240" height="79" as="alternateBounds" />
          </mxGeometry>
        </mxCell>
        <mxCell id="Xy2jGdK7bTG2j28SyOMI-10" value="Miljenko Krhen .................." style="connectable=0;recursiveResize=0;strokeColor=inherit;fillColor=inherit;align=center;whiteSpace=wrap;html=1;" vertex="1" parent="Xy2jGdK7bTG2j28SyOMI-1">
          <mxGeometry x="370" y="310" width="370" height="79" as="geometry">
            <mxRectangle width="370" height="79" as="alternateBounds" />
          </mxGeometry>
        </mxCell>
        <mxCell id="Xy2jGdK7bTG2j28SyOMI-11" value="" style="connectable=0;recursiveResize=0;strokeColor=inherit;fillColor=inherit;align=center;whiteSpace=wrap;html=1;" vertex="1" parent="Xy2jGdK7bTG2j28SyOMI-1">
          <mxGeometry x="740" y="310" width="250" height="79" as="geometry">
            <mxRectangle width="250" height="79" as="alternateBounds" />
          </mxGeometry>
        </mxCell>
        <mxCell id="Xy2jGdK7bTG2j28SyOMI-12" value="16.12.2023. u 14:00" style="connectable=0;recursiveResize=0;strokeColor=#36393d;fillColor=#eeeeee;whiteSpace=wrap;html=1;" vertex="1" parent="Xy2jGdK7bTG2j28SyOMI-1">
          <mxGeometry x="130" y="389" width="240" height="77" as="geometry">
            <mxRectangle width="240" height="77" as="alternateBounds" />
          </mxGeometry>
        </mxCell>
        <mxCell id="Xy2jGdK7bTG2j28SyOMI-13" value="Vlado Sruk&amp;nbsp; .................." style="connectable=0;recursiveResize=0;strokeColor=#36393d;fillColor=#eeeeee;whiteSpace=wrap;html=1;" vertex="1" parent="Xy2jGdK7bTG2j28SyOMI-1">
          <mxGeometry x="370" y="389" width="370" height="77" as="geometry">
            <mxRectangle width="370" height="77" as="alternateBounds" />
          </mxGeometry>
        </mxCell>
        <mxCell id="Xy2jGdK7bTG2j28SyOMI-14" value="" style="connectable=0;recursiveResize=0;strokeColor=#36393d;fillColor=#eeeeee;whiteSpace=wrap;html=1;" vertex="1" parent="Xy2jGdK7bTG2j28SyOMI-1">
          <mxGeometry x="740" y="389" width="250" height="77" as="geometry">
            <mxRectangle width="250" height="77" as="alternateBounds" />
          </mxGeometry>
        </mxCell>
        <mxCell id="Xy2jGdK7bTG2j28SyOMI-15" value="12.4.2024. u 11:00" style="connectable=0;recursiveResize=0;strokeColor=inherit;fillColor=inherit;fontStyle=0;align=center;whiteSpace=wrap;html=1;" vertex="1" parent="Xy2jGdK7bTG2j28SyOMI-1">
          <mxGeometry x="130" y="466" width="240" height="81" as="geometry">
            <mxRectangle width="240" height="81" as="alternateBounds" />
          </mxGeometry>
        </mxCell>
        <mxCell id="Xy2jGdK7bTG2j28SyOMI-16" value="..." style="connectable=0;recursiveResize=0;strokeColor=inherit;fillColor=inherit;fontStyle=0;align=center;whiteSpace=wrap;html=1;" vertex="1" parent="Xy2jGdK7bTG2j28SyOMI-1">
          <mxGeometry x="370" y="466" width="370" height="81" as="geometry">
            <mxRectangle width="370" height="81" as="alternateBounds" />
          </mxGeometry>
        </mxCell>
        <mxCell id="Xy2jGdK7bTG2j28SyOMI-17" value="" style="connectable=0;recursiveResize=0;strokeColor=inherit;fillColor=inherit;fontStyle=0;align=center;whiteSpace=wrap;html=1;" vertex="1" parent="Xy2jGdK7bTG2j28SyOMI-1">
          <mxGeometry x="740" y="466" width="250" height="81" as="geometry">
            <mxRectangle width="250" height="81" as="alternateBounds" />
          </mxGeometry>
        </mxCell>
        <mxCell id="Xy2jGdK7bTG2j28SyOMI-18" value="1.3.2024. u 11:00" style="connectable=0;recursiveResize=0;strokeColor=#36393d;fillColor=#eeeeee;whiteSpace=wrap;html=1;" vertex="1" parent="Xy2jGdK7bTG2j28SyOMI-1">
          <mxGeometry x="130" y="547" width="240" height="77" as="geometry">
            <mxRectangle width="240" height="77" as="alternateBounds" />
          </mxGeometry>
        </mxCell>
        <mxCell id="Xy2jGdK7bTG2j28SyOMI-19" value="..." style="connectable=0;recursiveResize=0;strokeColor=#36393d;fillColor=#eeeeee;whiteSpace=wrap;html=1;" vertex="1" parent="Xy2jGdK7bTG2j28SyOMI-1">
          <mxGeometry x="370" y="547" width="370" height="77" as="geometry">
            <mxRectangle width="370" height="77" as="alternateBounds" />
          </mxGeometry>
        </mxCell>
        <mxCell id="Xy2jGdK7bTG2j28SyOMI-20" value="" style="connectable=0;recursiveResize=0;strokeColor=#36393d;fillColor=#eeeeee;whiteSpace=wrap;html=1;" vertex="1" parent="Xy2jGdK7bTG2j28SyOMI-1">
          <mxGeometry x="740" y="547" width="250" height="77" as="geometry">
            <mxRectangle width="250" height="77" as="alternateBounds" />
          </mxGeometry>
        </mxCell>
        <mxCell id="Xy2jGdK7bTG2j28SyOMI-21" value="&lt;p style=&quot;line-height: 100%;&quot;&gt;&lt;font style=&quot;font-size: 10px;&quot;&gt;&lt;b&gt;PRIHVATI&lt;/b&gt;&lt;/font&gt;&lt;/p&gt;" style="html=1;shadow=0;dashed=0;shape=mxgraph.bootstrap.rrect;rSize=5;strokeColor=none;strokeWidth=1;fillColor=#33A64C;fontColor=#FFFFFF;whiteSpace=wrap;align=center;verticalAlign=middle;spacingLeft=0;fontStyle=0;fontSize=16;spacing=5;" vertex="1" parent="Xy2jGdK7bTG2j28SyOMI-1">
          <mxGeometry x="880" y="335" width="80" height="29" as="geometry" />
        </mxCell>
        <mxCell id="Xy2jGdK7bTG2j28SyOMI-22" value="&lt;p style=&quot;line-height: 100%;&quot;&gt;&lt;font style=&quot;font-size: 10px;&quot;&gt;&lt;b&gt;ODBIJ&lt;/b&gt;&lt;/font&gt;&lt;/p&gt;" style="html=1;shadow=0;dashed=0;shape=mxgraph.bootstrap.rrect;rSize=5;strokeColor=none;strokeWidth=1;fillColor=#DB2843;fontColor=#FFFFFF;whiteSpace=wrap;align=center;verticalAlign=middle;spacingLeft=0;fontStyle=0;fontSize=16;spacing=5;" vertex="1" parent="Xy2jGdK7bTG2j28SyOMI-1">
          <mxGeometry x="780" y="335" width="70" height="29" as="geometry" />
        </mxCell>
        <mxCell id="L92Hn9FISBI4tjfy4Q_m-0" value="&lt;p style=&quot;line-height: 100%;&quot;&gt;&lt;font style=&quot;font-size: 10px;&quot;&gt;&lt;b&gt;ODBIJ&lt;/b&gt;&lt;/font&gt;&lt;/p&gt;" style="html=1;shadow=0;dashed=0;shape=mxgraph.bootstrap.rrect;rSize=5;strokeColor=none;strokeWidth=1;fillColor=#DB2843;fontColor=#FFFFFF;whiteSpace=wrap;align=center;verticalAlign=middle;spacingLeft=0;fontStyle=0;fontSize=16;spacing=5;" vertex="1" parent="Xy2jGdK7bTG2j28SyOMI-1">
          <mxGeometry x="780" y="411" width="70" height="29" as="geometry" />
        </mxCell>
        <mxCell id="L92Hn9FISBI4tjfy4Q_m-1" value="&lt;p style=&quot;line-height: 100%;&quot;&gt;&lt;font style=&quot;font-size: 10px;&quot;&gt;&lt;b&gt;PRIHVATI&lt;/b&gt;&lt;/font&gt;&lt;/p&gt;" style="html=1;shadow=0;dashed=0;shape=mxgraph.bootstrap.rrect;rSize=5;strokeColor=none;strokeWidth=1;fillColor=#33A64C;fontColor=#FFFFFF;whiteSpace=wrap;align=center;verticalAlign=middle;spacingLeft=0;fontStyle=0;fontSize=16;spacing=5;" vertex="1" parent="Xy2jGdK7bTG2j28SyOMI-1">
          <mxGeometry x="880" y="411" width="80" height="29" as="geometry" />
        </mxCell>
        <mxCell id="L92Hn9FISBI4tjfy4Q_m-2" value="&lt;p style=&quot;line-height: 100%;&quot;&gt;&lt;font style=&quot;font-size: 10px;&quot;&gt;&lt;b&gt;PRIHVATI&lt;/b&gt;&lt;/font&gt;&lt;/p&gt;" style="html=1;shadow=0;dashed=0;shape=mxgraph.bootstrap.rrect;rSize=5;strokeColor=none;strokeWidth=1;fillColor=#33A64C;fontColor=#FFFFFF;whiteSpace=wrap;align=center;verticalAlign=middle;spacingLeft=0;fontStyle=0;fontSize=16;spacing=5;" vertex="1" parent="Xy2jGdK7bTG2j28SyOMI-1">
          <mxGeometry x="880" y="490" width="80" height="29" as="geometry" />
        </mxCell>
        <mxCell id="L92Hn9FISBI4tjfy4Q_m-3" value="&lt;p style=&quot;line-height: 100%;&quot;&gt;&lt;font style=&quot;font-size: 10px;&quot;&gt;&lt;b&gt;ODBIJ&lt;/b&gt;&lt;/font&gt;&lt;/p&gt;" style="html=1;shadow=0;dashed=0;shape=mxgraph.bootstrap.rrect;rSize=5;strokeColor=none;strokeWidth=1;fillColor=#DB2843;fontColor=#FFFFFF;whiteSpace=wrap;align=center;verticalAlign=middle;spacingLeft=0;fontStyle=0;fontSize=16;spacing=5;" vertex="1" parent="Xy2jGdK7bTG2j28SyOMI-1">
          <mxGeometry x="780" y="490" width="70" height="29" as="geometry" />
        </mxCell>
        <mxCell id="L92Hn9FISBI4tjfy4Q_m-4" value="&lt;p style=&quot;line-height: 100%;&quot;&gt;&lt;font style=&quot;font-size: 10px;&quot;&gt;&lt;b&gt;ODBIJ&lt;/b&gt;&lt;/font&gt;&lt;/p&gt;" style="html=1;shadow=0;dashed=0;shape=mxgraph.bootstrap.rrect;rSize=5;strokeColor=none;strokeWidth=1;fillColor=#DB2843;fontColor=#FFFFFF;whiteSpace=wrap;align=center;verticalAlign=middle;spacingLeft=0;fontStyle=0;fontSize=16;spacing=5;" vertex="1" parent="Xy2jGdK7bTG2j28SyOMI-1">
          <mxGeometry x="780" y="570" width="70" height="29" as="geometry" />
        </mxCell>
        <mxCell id="L92Hn9FISBI4tjfy4Q_m-5" value="&lt;p style=&quot;line-height: 100%;&quot;&gt;&lt;font style=&quot;font-size: 10px;&quot;&gt;&lt;b&gt;PRIHVATI&lt;/b&gt;&lt;/font&gt;&lt;/p&gt;" style="html=1;shadow=0;dashed=0;shape=mxgraph.bootstrap.rrect;rSize=5;strokeColor=none;strokeWidth=1;fillColor=#33A64C;fontColor=#FFFFFF;whiteSpace=wrap;align=center;verticalAlign=middle;spacingLeft=0;fontStyle=0;fontSize=16;spacing=5;" vertex="1" parent="Xy2jGdK7bTG2j28SyOMI-1">
          <mxGeometry x="880" y="570" width="80" height="29" as="geometry" />
        </mxCell>
        <mxCell id="B9GeWAbSimSp_tWO2yvv-0" value="*ovaj page vide djelatnici i admini*" style="text;strokeColor=none;fillColor=none;html=1;fontSize=24;fontStyle=1;verticalAlign=middle;align=center;" vertex="1" parent="Xy2jGdK7bTG2j28SyOMI-1">
          <mxGeometry x="370" y="20" width="420" height="40" as="geometry" />
        </mxCell>
      </root>
    </mxGraphModel>
  </diagram>
  <diagram name="Page 8" id="vpIu-S-bCusreI0GD-kE">
    <mxGraphModel dx="1434" dy="758" grid="1" gridSize="10" guides="1" tooltips="1" connect="1" arrows="1" fold="1" page="1" pageScale="1" pageWidth="1100" pageHeight="850" background="#ffffff" math="0" shadow="0">
      <root>
        <mxCell id="8v0ppIHPcoyXmCX_2uOS-0" />
        <mxCell id="8v0ppIHPcoyXmCX_2uOS-1" parent="8v0ppIHPcoyXmCX_2uOS-0" />
        <mxCell id="8v0ppIHPcoyXmCX_2uOS-2" value="" style="strokeWidth=1;shadow=0;dashed=0;align=center;html=1;shape=mxgraph.mockup.containers.browserWindow;rSize=0;strokeColor=#666666;mainText=,;recursiveResize=0;rounded=0;labelBackgroundColor=none;fontFamily=Verdana;fontSize=12;container=0;" vertex="1" parent="8v0ppIHPcoyXmCX_2uOS-1">
          <mxGeometry x="25" y="15" width="1050" height="820" as="geometry" />
        </mxCell>
        <mxCell id="8v0ppIHPcoyXmCX_2uOS-3" value="Page 8" style="strokeWidth=1;shadow=0;dashed=0;align=center;html=1;shape=mxgraph.mockup.containers.anchor;fontSize=17;fontColor=#666666;align=left;" vertex="1" parent="8v0ppIHPcoyXmCX_2uOS-1">
          <mxGeometry x="85" y="27" width="110" height="26" as="geometry" />
        </mxCell>
        <mxCell id="8v0ppIHPcoyXmCX_2uOS-4" value="https://www.default.com" style="strokeWidth=1;shadow=0;dashed=0;align=center;html=1;shape=mxgraph.mockup.containers.anchor;rSize=0;fontSize=17;fontColor=#666666;align=left;" vertex="1" parent="8v0ppIHPcoyXmCX_2uOS-1">
          <mxGeometry x="155" y="75" width="250" height="26" as="geometry" />
        </mxCell>
        <mxCell id="8v0ppIHPcoyXmCX_2uOS-29" value="*ovaj page vide djelatnici i admini*" style="text;strokeColor=none;fillColor=none;html=1;fontSize=24;fontStyle=1;verticalAlign=middle;align=center;" vertex="1" parent="8v0ppIHPcoyXmCX_2uOS-1">
          <mxGeometry x="370" y="20" width="420" height="40" as="geometry" />
        </mxCell>
        <mxCell id="lBbbm9yF0jnB7In94Vd_-0" value="Pacijent Miroslav Mirić - evidencija dolaska na terapiju" style="text;strokeColor=none;fillColor=none;html=1;fontSize=24;fontStyle=1;verticalAlign=middle;align=left;" vertex="1" parent="8v0ppIHPcoyXmCX_2uOS-1">
          <mxGeometry x="130" y="140" width="750" height="70" as="geometry" />
        </mxCell>
        <mxCell id="lBbbm9yF0jnB7In94Vd_-20" value="" style="rounded=0;whiteSpace=wrap;html=1;" vertex="1" parent="8v0ppIHPcoyXmCX_2uOS-1">
          <mxGeometry x="120" y="220" width="880" height="580" as="geometry" />
        </mxCell>
        <mxCell id="lBbbm9yF0jnB7In94Vd_-8" value="" style="strokeWidth=1;shadow=0;dashed=0;align=center;html=1;shape=mxgraph.mockup.forms.rrect;rSize=0;strokeColor=#999999;fillColor=#ffffff;recursiveResize=0;" vertex="1" parent="8v0ppIHPcoyXmCX_2uOS-1">
          <mxGeometry x="126" y="231" width="414" height="120" as="geometry" />
        </mxCell>
        <mxCell id="lBbbm9yF0jnB7In94Vd_-10" value="Pacijent nije došao na dogovoreni termin" style="shape=ellipse;rSize=0;fillColor=#eeeeee;strokeColor=#999999;gradientColor=#cccccc;html=1;align=left;spacingLeft=4;fontSize=17;fontColor=#666666;labelPosition=right;" vertex="1" parent="lBbbm9yF0jnB7In94Vd_-8">
          <mxGeometry x="8" y="37.5" width="15" height="15" as="geometry" />
        </mxCell>
        <mxCell id="lBbbm9yF0jnB7In94Vd_-11" value="Pacijent je došao, ali nije uspješno odradio terapiju" style="shape=ellipse;rSize=0;fillColor=#aaaaaa;strokeColor=#444444;gradientColor=#666666;html=1;align=left;spacingLeft=4;fontSize=17;fontColor=#008cff;labelPosition=right;" vertex="1" parent="lBbbm9yF0jnB7In94Vd_-8">
          <mxGeometry x="8" y="67.5" width="15" height="15" as="geometry" />
        </mxCell>
        <mxCell id="lBbbm9yF0jnB7In94Vd_-12" value="" style="shape=ellipse;fillColor=#444444;strokeColor=none;html=1;" vertex="1" parent="lBbbm9yF0jnB7In94Vd_-11">
          <mxGeometry x="3" y="3" width="9" height="9" as="geometry" />
        </mxCell>
        <mxCell id="lBbbm9yF0jnB7In94Vd_-13" value="Pacijent je uspješno odradio terapiju" style="shape=ellipse;rSize=0;fillColor=#eeeeee;strokeColor=#999999;gradientColor=#cccccc;html=1;align=left;spacingLeft=4;fontSize=17;fontColor=#666666;labelPosition=right;" vertex="1" parent="lBbbm9yF0jnB7In94Vd_-8">
          <mxGeometry x="8" y="97.5" width="15" height="15" as="geometry" />
        </mxCell>
        <mxCell id="lBbbm9yF0jnB7In94Vd_-22" value="Evidencija:" style="text;html=1;strokeColor=none;fillColor=none;align=left;verticalAlign=middle;whiteSpace=wrap;rounded=0;fontSize=18;" vertex="1" parent="lBbbm9yF0jnB7In94Vd_-8">
          <mxGeometry x="8" width="224" height="30" as="geometry" />
        </mxCell>
        <mxCell id="lBbbm9yF0jnB7In94Vd_-14" value="" style="strokeWidth=1;shadow=0;dashed=0;align=center;html=1;shape=mxgraph.mockup.forms.rrect;rSize=0;strokeColor=#999999;fillColor=#ffffff;recursiveResize=0;" vertex="1" parent="8v0ppIHPcoyXmCX_2uOS-1">
          <mxGeometry x="126" y="390" width="380" height="120" as="geometry" />
        </mxCell>
        <mxCell id="lBbbm9yF0jnB7In94Vd_-15" value="Puno bolje" style="shape=ellipse;rSize=0;fillColor=#eeeeee;strokeColor=#999999;gradientColor=#cccccc;html=1;align=left;spacingLeft=4;fontSize=17;fontColor=#666666;labelPosition=right;" vertex="1" parent="lBbbm9yF0jnB7In94Vd_-14">
          <mxGeometry x="8" y="7.5" width="15" height="15" as="geometry" />
        </mxCell>
        <mxCell id="lBbbm9yF0jnB7In94Vd_-16" value="Malo bolje" style="shape=ellipse;rSize=0;fillColor=#eeeeee;strokeColor=#999999;gradientColor=#cccccc;html=1;align=left;spacingLeft=4;fontSize=17;fontColor=#666666;labelPosition=right;" vertex="1" parent="lBbbm9yF0jnB7In94Vd_-14">
          <mxGeometry x="8" y="37.5" width="15" height="15" as="geometry" />
        </mxCell>
        <mxCell id="lBbbm9yF0jnB7In94Vd_-17" value="Isto" style="shape=ellipse;rSize=0;fillColor=#aaaaaa;strokeColor=#444444;gradientColor=#666666;html=1;align=left;spacingLeft=4;fontSize=17;fontColor=#008cff;labelPosition=right;" vertex="1" parent="lBbbm9yF0jnB7In94Vd_-14">
          <mxGeometry x="8" y="67.5" width="15" height="15" as="geometry" />
        </mxCell>
        <mxCell id="lBbbm9yF0jnB7In94Vd_-18" value="" style="shape=ellipse;fillColor=#444444;strokeColor=none;html=1;" vertex="1" parent="lBbbm9yF0jnB7In94Vd_-17">
          <mxGeometry x="3" y="3" width="9" height="9" as="geometry" />
        </mxCell>
        <mxCell id="lBbbm9yF0jnB7In94Vd_-19" value="Lošije" style="shape=ellipse;rSize=0;fillColor=#eeeeee;strokeColor=#999999;gradientColor=#cccccc;html=1;align=left;spacingLeft=4;fontSize=17;fontColor=#666666;labelPosition=right;" vertex="1" parent="lBbbm9yF0jnB7In94Vd_-14">
          <mxGeometry x="8" y="97.5" width="15" height="15" as="geometry" />
        </mxCell>
        <mxCell id="lBbbm9yF0jnB7In94Vd_-21" value="Pacijent se osjeća:" style="text;html=1;strokeColor=none;fillColor=none;align=left;verticalAlign=middle;whiteSpace=wrap;rounded=0;fontSize=18;" vertex="1" parent="8v0ppIHPcoyXmCX_2uOS-1">
          <mxGeometry x="126" y="360" width="224" height="30" as="geometry" />
        </mxCell>
        <mxCell id="lBbbm9yF0jnB7In94Vd_-38" value="" style="html=1;shadow=0;dashed=0;shape=mxgraph.bootstrap.rrect;rSize=5;fillColor=none;strokeColor=#999999;align=left;spacing=15;fontSize=14;fontColor=#6C767D;" vertex="1" parent="8v0ppIHPcoyXmCX_2uOS-1">
          <mxGeometry width="560" height="170" relative="1" as="geometry">
            <mxPoint x="130" y="550" as="offset" />
          </mxGeometry>
        </mxCell>
        <mxCell id="lBbbm9yF0jnB7In94Vd_-39" value="Komentari:" style="text;html=1;strokeColor=none;fillColor=none;align=left;verticalAlign=middle;whiteSpace=wrap;rounded=0;fontSize=18;" vertex="1" parent="8v0ppIHPcoyXmCX_2uOS-1">
          <mxGeometry x="130" y="520" width="224" height="30" as="geometry" />
        </mxCell>
        <mxCell id="glPSgpr7XXSL0AgdXb6A-0" value="Predaj evidenciju" style="rounded=1;whiteSpace=wrap;html=1;fillColor=#6a00ff;fontColor=#ffffff;strokeColor=#3700CC;" vertex="1" parent="8v0ppIHPcoyXmCX_2uOS-1">
          <mxGeometry x="780" y="750" width="170" height="30" as="geometry" />
        </mxCell>
        <mxCell id="glPSgpr7XXSL0AgdXb6A-1" value="" style="sketch=0;html=1;aspect=fixed;shadow=0;verticalAlign=top;labelPosition=center;verticalLabelPosition=bottom;shape=mxgraph.gcp2.check;" vertex="1" parent="8v0ppIHPcoyXmCX_2uOS-1">
          <mxGeometry x="797" y="758" width="18.75" height="15" as="geometry" />
        </mxCell>
        <mxCell id="glPSgpr7XXSL0AgdXb6A-2" value="Pacijent ne osjeća poboljšanje, ali vezivno tkivo je u izgledno boljem stanju i nije više naotečeno." style="text;html=1;strokeColor=none;fillColor=none;align=left;verticalAlign=middle;whiteSpace=wrap;rounded=0;fontSize=18;" vertex="1" parent="8v0ppIHPcoyXmCX_2uOS-1">
          <mxGeometry x="140" y="560" width="490" height="60" as="geometry" />
        </mxCell>
        <mxCell id="glPSgpr7XXSL0AgdXb6A-3" value="" style="rounded=0;whiteSpace=wrap;html=1;" vertex="1" parent="8v0ppIHPcoyXmCX_2uOS-1">
          <mxGeometry x="580" y="231" width="410" height="289" as="geometry" />
        </mxCell>
        <mxCell id="glPSgpr7XXSL0AgdXb6A-5" value="&lt;h1&gt;Informacije o terapiji&lt;/h1&gt;&lt;p&gt;Vrsta terapije:&amp;nbsp;&lt;/p&gt;&lt;p&gt;Očekivano trajanje:&lt;/p&gt;&lt;p&gt;Korištena oprema i uređaji:&lt;/p&gt;&lt;p&gt;Opis:&lt;/p&gt;&lt;p&gt;Lorem ipsum dolor sit amet, consectetur adipisicing elit, sed do eiusmod tempor incididunt ut labore et dolore magna aliqua.&lt;/p&gt;" style="text;html=1;strokeColor=none;fillColor=none;spacing=5;spacingTop=-20;whiteSpace=wrap;overflow=hidden;rounded=0;" vertex="1" parent="8v0ppIHPcoyXmCX_2uOS-1">
          <mxGeometry x="590" y="240" width="350" height="200" as="geometry" />
        </mxCell>
      </root>
    </mxGraphModel>
  </diagram>
</mxfile>
